<?xml version="1.0" encoding="UTF-8"?>
<svg width="360px" height="359px" viewBox="0 0 360 359" version="1.1" xmlns="http://www.w3.org/2000/svg" xmlns:xlink="http://www.w3.org/1999/xlink">
    <!-- Generator: Sketch 49 (51002) - http://www.bohemiancoding.com/sketch -->
    <title>sg-wayfinder-chart</title>
    <desc>Created with Sketch.</desc>
    <defs></defs>
    <g id="Page-1" stroke="none" stroke-width="1" fill="none" fill-rule="evenodd">
        <g id="wayfinder-result-chart-v6" transform="translate(-444.000000, -64.000000)">
            <g id="sg-wayfinder-chart" transform="translate(444.000000, 64.000000)">
                <g id="chart" transform="translate(15.000000, 15.000000)" fill="#E7E7E7" fill-rule="nonzero">
                    <path d="M164.705401,329.091653 C73.9173809,329.091653 0.319148936,255.493421 0.319148936,164.705401 C0.319148936,73.9173809 73.9173809,0.319148936 164.705401,0.319148936 C255.493421,0.319148936 329.091653,73.9173809 329.091653,164.705401 C329.091653,255.493421 255.493421,329.091653 164.705401,329.091653 Z M164.705401,307.880524 C243.778838,307.880524 307.880524,243.778838 307.880524,164.705401 C307.880524,85.6319641 243.778838,21.5302782 164.705401,21.5302782 C85.6319641,21.5302782 21.5302782,85.6319641 21.5302782,164.705401 C21.5302782,243.778838 85.6319641,307.880524 164.705401,307.880524 Z" id="chart-background"></path>
                </g>
                <g id="directional-lines" fill="#4D4D4D" fill-rule="nonzero">
                    <path d="M40.0693863,178.527005 C48.6645654,178.527005 75.5789123,178.527005 120.812427,178.527005 C121.219183,178.527005 121.548924,178.856746 121.548924,179.263502 C121.548924,179.670259 121.219183,180 120.812427,180 C84.9266311,180 58.0122842,180 40.0693863,180 M11.7836191,180 C9.5776006,180 6.06935575,180 1.25888452,180 C0.852128162,180 0.52238698,179.670259 0.52238698,179.263502 C0.52238698,178.856746 0.852128162,178.527005 1.25888452,178.527005 C6.05446168,178.527005 9.56270653,178.527005 11.7836191,178.527005" id="west"></path>
                    <path d="M180.589198,347.628136 C180.589198,352.582749 180.589198,356.117506 180.589198,358.232406 C180.589198,358.639162 180.259457,358.968903 179.8527,358.968903 C179.445944,358.968903 179.116203,358.639162 179.116203,358.232406 C179.116203,353.384757 179.116203,349.85 179.116203,347.628136 M179.116203,319.342566 C179.116203,301.603886 179.116203,274.995866 179.116203,239.518505 C179.116203,239.111748 179.445944,238.782007 179.8527,238.782007 C180.259457,238.782007 180.589198,239.111748 180.589198,239.518505 C180.589198,274.968383 180.589198,301.576403 180.589198,319.342566" id="south"></path>
                    <path d="M347.624549,178.527005 C350.510614,178.527005 354.216137,178.527005 358.741115,178.527005 C359.147872,178.527005 359.477613,178.856746 359.477613,179.263502 C359.477613,179.670259 359.147872,180 358.741115,180 C353.644443,180 349.938921,180 347.624549,180 M319.342513,180 C301.530304,180 274.811991,180 239.187573,180 C238.780817,180 238.451076,179.670259 238.451076,179.263502 C238.451076,178.856746 238.780817,178.527005 239.187573,178.527005 C274.806209,178.527005 301.524522,178.527005 319.342513,178.527005" id="east"></path>
                    <path d="M180.736498,40.0707528 C180.736498,54.4677347 180.736498,81.4677148 180.736498,121.070693 C180.736498,121.47745 180.406756,121.807191 180,121.807191 C179.593244,121.807191 179.263502,121.47745 179.263502,121.070693 L179.263502,40.0707528 M179.263502,11.786514 C179.263502,9.42915447 179.263502,5.89311515 179.263502,1.17839607 C179.263502,0.77163971 179.593244,0.441898527 180,0.441898527 C180.406756,0.441898527 180.736498,0.77163971 180.736498,1.17839607 C180.736498,5.89094146 180.736498,9.42535051 180.736498,11.7816232" id="north"></path>
                </g>
                <g id="labels" transform="translate(73.649755, 72.471358)" fill="#4D4D4D">
                    <g id="producing">
                        <path d="M7.62031915,69.7597717 L7.89503273,69.0311085 C8.46950082,67.5081433 7.65788052,66.9232952 6.18046645,66.36426 L5.42997545,66.0810549 C4.3060802,65.6555097 3.27498363,65.5175946 2.75796236,66.8864195 L2.41696399,67.792086 L7.62031915,69.7597717 Z M0.0137725041,69.1535357 L1.1546072,66.1289933 C2.01999182,63.8323765 3.56958265,63.1317388 6.08324877,64.0823936 L6.96483633,64.4157496 C9.30174304,65.3000282 10.6340671,66.7116289 9.60149755,69.4500161 L9.25166121,70.3770705 L15.4920049,72.7371134 L14.7422504,74.7239745 L0.0137725041,69.1535357 Z" id="Fill-1"></path>
                        <path d="M11.6034452,59.1454051 L11.9444435,58.4713178 C12.562365,57.2507332 12.1970622,56.5626332 10.6828232,55.7941442 L10.1363421,55.5168391 C8.95868249,54.9194533 8.1161293,54.8619272 7.4547545,56.167326 L7.10418167,56.8620636 L11.6034452,59.1454051 Z M4.56768412,57.957271 L5.97439444,55.1783205 C7.05041735,53.0513318 8.51972995,52.3411064 10.9582733,53.5786539 L11.5261129,53.8670217 C13.5868331,54.9120782 13.8446072,56.0220358 13.74518,56.7919998 C14.5612193,56.1208626 15.3934615,55.9881102 17.2869967,56.9483527 C18.4852782,57.5568012 20.7448527,58.730185 21.6816776,59.0200278 L20.7654746,60.8306232 C19.8080278,60.5828187 17.4954255,59.3563339 16.4856874,58.8444996 C14.7409247,57.958746 14.1708756,57.987509 13.5109738,59.2929078 L13.1802864,59.9456071 L19.5723486,63.1884536 L18.6134288,65.083863 L4.56768412,57.957271 Z" id="Fill-3"></path>
                        <path d="M14.6602046,47.6829718 L21.3866367,52.0888768 C22.648257,52.9156294 23.4782897,52.810165 23.993838,52.0195506 C24.5484206,51.1706727 24.3068494,50.419884 22.9848363,49.5547808 L16.2989116,45.1746887 C15.0962111,44.3870244 14.2264075,44.3811243 13.6593044,45.2506526 C13.1165057,46.0796176 13.4177332,46.868757 14.6602046,47.6829718 M17.6304992,43.4806204 L23.9813175,47.6409335 C26.4272259,49.2428126 26.9199427,51.0320201 25.5390098,53.144996 C24.1720704,55.2387966 22.3485025,55.314023 20.0020213,53.7763075 L13.6114321,49.5901814 C11.2060311,48.0141153 10.8223159,46.100268 12.0868822,44.1642953 C13.3772259,42.1892344 15.284018,41.9436425 17.6304992,43.4806204" id="Fill-5"></path>
                        <path d="M29.6354092,44.0299204 L30.1752619,43.3750085 C31.2719067,42.0467468 30.6827087,41.1300177 29.2833633,39.9728591 L24.1580769,35.7328946 C22.9229705,34.710701 21.9618412,34.2822057 20.8357365,35.647343 L20.2944108,36.3022549 L29.6354092,44.0299204 Z M17.544329,36.7823762 L19.5564403,34.3441568 C21.7025941,31.741472 23.5629869,32.4531725 25.6701064,34.1973917 L30.3954746,38.1062127 C32.2485025,39.6395031 33.9925286,41.6027638 31.6651964,44.4237525 L29.6832815,46.8258337 L17.544329,36.7823762 Z" id="Fill-7"></path>
                        <path d="M27.3590426,25.7599433 L35.7587971,34.4714517 C36.5939853,35.3372924 37.4070786,35.6020597 38.1524141,34.8807716 C38.9331015,34.1262954 38.6466039,33.3201932 37.8283552,32.4713153 L29.4286007,23.759807 L30.9376841,22.300268 L39.3042962,30.9778507 C41.0070786,32.7441953 41.2258183,34.5673284 39.4626432,36.2724594 C37.7488134,37.9289145 36.0173077,37.7983746 34.2165712,35.9302532 L25.8330196,27.2357077 L27.3590426,25.7599433 Z" id="Fill-9"></path>
                        <path d="M47.284689,23.3403094 L47.6315794,23.7872425 C48.788617,25.2784946 49.989108,27.363445 47.5137398,29.28983 C45.2806792,31.0274116 43.6913175,29.9034411 42.2448363,28.0397448 L37.3567021,21.7406428 C35.8373077,19.7840197 35.7872259,17.9107357 37.6292062,16.4762721 C39.8431178,14.7527033 41.4427905,15.9297747 42.7589116,17.625318 L43.1647218,18.14674 L41.4891899,19.4506637 L40.9397627,18.7426508 C40.2452455,17.848047 39.5823977,17.378251 38.7818249,18.0007123 C38.0195499,18.5944106 38.2441817,19.3459368 38.9821522,20.2965915 L44.0580933,26.8375979 C44.8247872,27.8251284 45.5796972,28.3738383 46.397946,27.7366268 C47.1985188,27.1141654 46.8634124,26.2984756 46.0679951,25.273332 L45.5907447,24.6582458 L47.284689,23.3403094 Z" id="Fill-11"></path>
                        <polygon id="Fill-13" points="46.2562439 10.6585451 54.8364403 23.8740478 53.0585352 25.0319439 44.4783388 11.8164412"></polygon>
                        <path d="M58.4048445,21.6401935 L51.0627005,7.69529003 L53.2515712,6.53960652 L59.3615548,13.1853398 C60.2018985,14.074781 60.7881506,14.8329447 61.2116367,15.3831297 L61.2528805,15.3610043 C60.2033715,13.6204727 59.170802,11.6586871 57.9725205,9.3827207 L55.7748118,5.20765732 L57.504108,4.29461572 L64.846252,18.2395192 L62.7413421,19.3509519 L55.8094272,11.7523513 C55.2371686,11.1203023 54.8254664,10.5907677 54.5220295,10.2175859 L54.5014075,10.2286486 C55.4743208,11.875516 56.5613912,13.8896651 57.8922422,16.4156485 L60.1562357,20.7153517 L58.4048445,21.6401935 Z" id="Fill-15"></path>
                        <path d="M74.9076923,14.0929238 L73.3698854,14.6917847 C73.2321604,14.4668431 72.9486088,13.8679822 72.8072013,13.5685518 C72.8049918,14.7345605 72.1060556,15.4115978 71.1397709,15.7877296 C69.0525368,16.6004694 67.7511457,15.3341589 66.8121113,12.9136399 L64.061293,5.82982362 C63.1222586,3.40930463 63.4566285,1.40548072 65.8296236,0.481376421 C68.707856,-0.638906439 69.8847791,1.283791 70.5417349,2.97785929 L70.7133388,3.41741728 L68.7564648,4.17926863 L68.561293,3.67333443 C68.2099836,2.77061803 67.6855974,1.81037557 66.5211948,2.2632088 C65.6211948,2.61426518 65.4422259,3.39307934 65.9717676,4.75674162 L68.9015548,12.3029788 C69.4053191,13.6010024 70.0468085,14.212401 70.9703764,13.8532319 C72.1126841,13.4085114 71.9396072,12.3103539 71.2988543,10.6605364 L70.4275777,8.41702064 L69.0002455,8.97236824 L68.3418167,7.27829995 L71.7473813,5.95298836 L74.9076923,14.0929238 Z" id="Fill-17"></path>
                    </g>
                    <g id="seeking" transform="translate(149.656301, 5.302782)">
                        <path d="M3.48267594,9.95946898 L3.04225041,10.7943341 C2.43758592,11.941905 2.47146481,12.7863579 3.3464239,13.2495163 C4.26336334,13.7340626 4.96229951,13.1167639 5.57874795,11.9478051 C6.39257774,10.4041896 6.3454419,9.68511399 5.46164484,7.72406585 C4.59773322,5.7733429 4.20223404,4.60364664 5.27972995,2.55852197 C6.23717676,0.743501484 7.71459083,-0.743325538 10.0897954,0.512659789 C12.4443781,1.75758241 12.0540344,3.65962948 11.1960147,5.28658405 L10.8329214,5.97542157 L8.97842062,4.99452874 L9.31941899,4.34772949 C9.86958265,3.30488554 10.0345581,2.5378716 9.22146481,2.10790128 C8.40910802,1.67793097 7.82653846,2.27752936 7.29920622,3.27907257 C6.71590016,4.38460516 6.65918985,4.99600377 7.4258838,6.57501997 C8.6543617,9.14525418 8.81786416,10.3525636 7.59675123,12.6683557 C6.56270867,14.6301414 4.94830606,16.1243435 2.46851882,14.8130447 C0.0307119476,13.5238713 0.23103928,11.6284618 1.19879705,9.79279095 L1.62817512,8.97857615 L3.48267594,9.95946898 Z" id="Fill-20"></path>
                        <polygon id="Fill-22" points="17.4768658 15.066233 14.5677005 13.1391105 11.5642635 17.6858806 14.8851309 19.8866206 13.6028887 21.3572224 8.72874795 18.1276512 17.4142635 4.97999973 22.2493699 8.18302044 21.1711375 9.81661263 18.1043617 7.78550072 15.6334124 11.5254312 18.5425777 13.4525537"></polygon>
                        <polygon id="Fill-24" points="25.3819885 21.2162836 22.6694681 19.0207062 19.248437 23.2606707 22.3454092 25.7674788 20.9291244 27.1097532 16.3834615 23.4310363 26.2783061 11.1706135 30.787144 14.8190923 29.5579296 16.342795 26.6981097 14.0284779 23.8839525 17.5161788 26.596473 19.7110187"></polygon>
                        <path d="M34.5874714,18.2241179 L36.0619394,19.6843945 L30.9233961,24.8860765 L30.9403355,24.9030393 C32.453838,24.2776279 36.0125941,22.7893259 38.2567021,21.8593215 L39.9160311,23.5025014 L33.495982,25.8404188 L28.9937725,34.8602078 L27.3521195,33.2339907 L30.9314975,26.3883913 L28.6520376,27.1849058 L24.9894354,30.8931232 L23.5149673,29.4321091 L34.5874714,18.2241179 Z" id="Fill-26"></path>
                        <polygon id="Fill-28" points="44.2367676 28.533449 32.2333306 38.7273593 30.8619722 37.1077799 42.8654092 26.9138696"></polygon>
                        <path d="M34.8945908,41.982596 L47.7766694,32.9244563 L49.1988462,34.9518807 L43.39009,41.8616438 C42.6152946,42.810086 41.9384534,43.4878608 41.4472095,43.9775697 L41.4751964,44.0159204 C43.0652946,42.7532975 44.8785516,41.4788743 46.9797791,40.0001599 L50.8368167,37.2883232 L51.9614484,38.8916773 L39.0793699,47.9498169 L37.7109574,45.999094 L44.3600573,38.1526889 C44.9131669,37.5044146 45.3852619,37.0279809 45.7159493,36.6798746 L45.7034288,36.6599617 C44.1950818,37.8355581 42.337635,39.1704574 40.0044108,40.8114247 L36.031743,43.6051255 L34.8945908,41.982596 Z" id="Fill-30"></path>
                        <path d="M44.4740671,57.418899 L43.6852782,55.9682101 C43.890761,55.8022696 44.4475532,55.4445756 44.7259493,55.2660974 C43.5703846,55.412125 42.8110556,54.8051515 42.3153928,53.8928474 C41.2445254,51.9236866 42.3330687,50.4700477 44.6103191,49.2288127 L51.2756219,45.5943466 C53.5528723,44.352374 55.5804501,44.4290754 56.7978805,46.6681661 C58.2745581,49.382953 56.5202209,50.7967662 54.9257038,51.6662945 L54.5125286,51.8919736 L53.509419,50.046715 L53.9851964,49.7871103 C54.8336416,49.3246894 55.7189116,48.6808402 55.1208756,47.5826827 C54.6590917,46.7323298 53.8651473,46.6548909 52.5821686,47.3547911 L45.4815957,51.225999 C44.2604828,51.8919736 43.7368331,52.6073616 44.210401,53.4776274 C44.7959165,54.555872 45.8616285,54.2439038 47.4134288,53.3972384 L49.5249673,52.24598 L48.7921522,50.898543 L50.3859329,50.0297522 L52.1329051,53.2423606 L44.4740671,57.418899 Z" id="Fill-32"></path>
                    </g>
                    <g id="receiving" transform="translate(141.996727, 143.764321)">
                        <path d="M4.81227496,58.9887355 L5.50605565,58.6929926 C6.76325696,58.1560829 6.92602291,57.3942315 6.26096563,55.8314406 L6.02086743,55.2672429 C5.50310966,54.0518208 4.89476268,53.4647601 3.55139116,54.037808 L2.83551555,54.3431386 L4.81227496,58.9887355 Z M0.192225859,53.5473616 L3.05351882,52.3267769 C5.24312602,51.3923474 6.82291326,51.7950298 7.89525368,54.313638 L8.14418985,54.8992237 C9.04934534,57.0269499 8.53379705,58.0425058 7.96301146,58.5676154 C9.01841244,58.5786781 9.74165303,59.0145485 10.5724223,60.9682215 C11.0997545,62.2050315 12.0756137,64.5591742 12.605892,65.3844517 L10.7418167,66.1802287 C10.1673486,65.373389 9.18559738,62.9447574 8.74222586,61.9033885 C7.97553191,60.1016432 7.52184943,59.756487 6.17774141,60.3295349 L5.50531915,60.6171651 L8.31358429,67.2156975 L6.36260229,68.0483502 L0.192225859,53.5473616 Z" id="Fill-34"></path>
                        <polygon id="Fill-36" points="18.6460556 53.8513646 15.5925368 55.5402703 18.2247791 60.3134571 21.7120949 58.384122 22.4191326 60.2043051 17.3026841 63.034144 9.6902455 49.2323182 14.7654501 46.4253422 15.7118494 48.1400608 12.4933552 49.9204182 14.6579214 53.846202 17.7114403 52.1572963"></polygon>
                        <path d="M29.460491,50.0111323 L29.7816039,50.4779783 C30.8509984,52.0326566 31.9307038,54.1825082 29.3492799,55.963603 C27.0197381,57.5713822 25.4973977,56.3566977 24.1606547,54.4140874 L19.6400327,47.844318 C18.2362684,45.8043559 18.2922422,43.9310718 20.2130278,42.6050227 C22.5226841,41.0112563 24.0523895,42.2775668 25.26982,44.0461239 L25.6439607,44.5896713 L23.8969885,45.7955057 L23.3895417,45.0565173 C22.7473159,44.1243004 22.1117185,43.6168911 21.2772668,44.1921516 C20.4818494,44.7415991 20.6637643,45.5049254 21.3450245,46.4954059 L26.0387234,53.3174049 C26.7479705,54.3477112 27.4697381,54.9391969 28.3233388,54.3499237 C29.158527,53.7739257 28.8705565,52.9405356 28.1355319,51.8711411 L27.6943699,51.2295045 L29.460491,50.0111323 Z" id="Fill-38"></path>
                        <polygon id="Fill-40" points="35.4258265 41.5750853 32.7597054 43.8267137 36.2698527 47.9936644 39.3137971 45.4226927 40.3618331 47.0688226 35.894239 50.8419412 25.7445663 38.7924472 30.176072 35.0488292 31.4376923 36.5467189 28.6272177 38.920037 31.5135516 42.3472618 34.1804092 40.0956334"></polygon>
                        <polygon id="Fill-42" points="34.1808511 31.1577084 45.2459902 42.3738123 43.7376432 43.8665394 32.6717676 32.6504356"></polygon>
                        <path d="M37.9179869,27.1798562 L43.584599,30.8209598 C45.4317349,31.9995062 47.5373813,33.2746669 48.9367267,34.2865353 L48.9514566,34.2680975 C47.79,33.0873385 46.2205237,31.1845539 44.7416367,29.5760372 L40.2151227,24.4901448 L41.6704419,22.7850138 L51.8746154,35.0941125 L50.1902455,37.0676984 L36.4317349,28.9196503 L37.9179869,27.1798562 Z" id="Fill-44"></path>
                        <polygon id="Fill-46" points="44.7313257 18.5392966 57.5080851 27.747889 56.2692962 29.4714578 43.4918003 20.2628654"></polygon>
                        <path d="M60.6069722,23.2128453 L47.0568903,15.192387 L48.3155646,13.0587608 L56.9959247,15.5117303 C58.1780033,15.8273861 59.0735843,16.1651672 59.7217021,16.4122342 L59.74527,16.371671 C57.9415876,15.4409291 56.0340589,14.311796 53.8230933,13.0027097 L49.7664648,10.6013661 L50.7622095,8.91541046 L64.3115548,16.9366062 L63.1007529,18.987631 L53.2221113,16.1555795 C52.4038625,15.9173627 51.7763666,15.683571 51.3226841,15.5242681 L51.3101637,15.5449184 C53.001162,16.4365722 54.9808674,17.5804554 57.4348773,19.0333568 L61.6137643,21.5069768 L60.6069722,23.2128453 Z" id="Fill-48"></path>
                        <path d="M69.6901964,5.67816913 L69.0140917,7.18490901 C68.758527,7.12148286 68.1376596,6.89359122 67.8268576,6.78001415 C68.6414239,7.61192927 68.619329,8.58470945 68.1943699,9.53241418 C67.2774304,11.5775388 65.463437,11.5900766 63.0985434,10.5258447 L56.1754664,7.41427568 C53.8105728,6.35004384 52.6446972,4.68768863 53.6875777,2.36304638 C54.952144,-0.457204876 57.1373322,0.0848674756 58.7922422,0.829756013 L59.2223568,1.02298453 L58.3636007,2.93904435 L57.8686743,2.7163153 C56.9878232,2.3202706 55.9405237,2.00461487 55.4293944,3.1455481 C55.0338953,4.02835165 55.4514894,4.708339 56.7852864,5.30719989 L64.1583633,8.62306015 C65.4273486,9.19389552 66.3126187,9.17767023 66.7176923,8.2734788 C67.2199836,7.15393345 66.3280851,6.49385895 64.7151555,5.76888328 L62.5226023,4.78282786 L61.8951064,6.1826283 L60.2394599,5.43773976 L61.7352864,2.10049161 L69.6901964,5.67816913 Z" id="Fill-50"></path>
                    </g>
                    <g id="following" transform="translate(0.000000, 137.872340)">
                        <polygon id="Fill-52" points="14.7436498 0.249613748 16.8036334 5.75293877 14.9712275 6.44103877 13.6558429 2.9267874 9.39667758 4.52497895 10.6369394 7.8401017 8.80527005 8.5282017 7.56427169 5.21234144 0.744304419 7.77151295 -0.000294599018 5.7824393"></polygon>
                        <path d="M15.4513502,12.1045517 L8.25503273,15.6844418 C6.90429624,16.357054 6.57508183,17.127018 6.99488543,17.9722083 C7.44562193,18.8808249 8.21452537,19.051928 9.62860065,18.3483402 L16.7836743,14.7891005 C18.071072,14.1482013 18.51518,13.4003628 18.0533961,12.4703583 C17.613707,11.5823922 16.7814648,11.4437397 15.4513502,12.1045517 M17.5687807,16.7958745 L10.7723813,20.1766359 C8.15560556,21.4790846 6.36518003,20.9997009 5.24349427,18.7377473 C4.13211948,16.497919 4.98940262,14.8857147 7.50085925,13.6356295 L14.339239,10.2342177 C16.9140344,8.95315693 18.7567512,9.59110602 19.7841653,11.6620437 C20.8329378,13.7757571 20.0802373,15.5465268 17.5687807,16.7958745" id="Fill-55"></path>
                        <polygon id="Fill-57" points="23.0594435 18.1826209 24.1892308 19.9806786 12.4605074 27.3713004 14.5698363 30.7277239 12.8604255 31.5530014 9.73472995 26.5799485"></polygon>
                        <polygon id="Fill-59" points="27.9588462 25.6333501 29.2477169 27.3207807 18.2392881 35.7512965 20.6439525 38.9004787 19.0170295 39.8784215 15.4531178 35.2099616"></polygon>
                        <path d="M31.9247381,36.6031244 L26.0577987,42.1057119 C24.9567349,43.1382307 24.8631997,43.9701458 25.507635,44.6597209 C26.2014157,45.4009218 26.9865221,45.3433958 28.1384043,44.2614636 L33.9714648,38.7913267 C35.0217103,37.8067463 35.2323486,36.961556 34.5231015,36.2033922 C33.8462602,35.480629 33.009599,35.5860935 31.9247381,36.6031244 M35.3008429,40.4883451 L29.7609083,45.684127 C27.6265385,47.6850008 25.7735106,47.7417894 24.0493699,45.8980059 C22.3414321,44.0719227 22.7001064,42.2797651 24.7475696,40.3592802 L30.3221195,35.1310477 C32.4211375,33.1618869 34.36991,33.2422759 35.9496972,34.930444 C37.5604173,36.6532754 37.3475696,38.5671226 35.3008429,40.4883451" id="Fill-61"></path>
                        <path d="M31.7549755,53.2159089 L40.129689,39.689913 L41.8545663,41.120689 C39.8954828,44.1540817 36.6526841,49.0349454 34.9845172,51.2364229 L35.0213421,51.2666609 C37.1476105,49.1396723 41.3802619,45.3562285 44.0139771,42.9121091 L45.6291162,44.2529085 C43.6796072,47.3858654 40.9913912,51.9296855 39.1464648,54.5670334 L39.1832897,54.596534 C41.192455,52.4636452 45.1710147,48.653651 47.8253519,46.0745666 L49.4765794,47.4448665 L37.6174959,58.0798098 L35.9294435,56.6792718 C37.8671686,53.5979408 40.4861538,49.2112111 42.1447463,46.7250534 L42.1086579,46.6955529 C39.8697054,48.8837551 36.0649591,52.2246909 33.4253519,54.6016966 L31.7549755,53.2159089 Z" id="Fill-63"></path>
                        <polygon id="Fill-65" points="53.9175123 50.2867269 45.2018003 63.4122529 43.4364157 62.2366566 52.1521277 49.1111305"></polygon>
                        <path d="M49.8379787,66.3434999 L57.3450982,52.4819355 L59.5207119,53.663432 L57.3944435,62.4442666 C57.1226759,63.6390383 56.817766,64.5476548 56.5953437,65.2062543 L56.6365876,65.2283797 C57.4990262,63.3875462 58.5559002,61.4375608 59.7806956,59.1748697 L62.0292226,55.0248817 L63.7489444,55.9593112 L56.2410884,69.8216132 L54.1486989,68.6843675 L56.6115466,58.6895858 C56.8185025,57.8620958 57.0291408,57.2248842 57.1712848,56.7646759 L57.1506628,56.7528756 C56.3228396,58.4793945 55.2541817,60.5031313 53.8938707,63.0136269 L51.5783224,67.2889921 L49.8379787,66.3434999 Z" id="Fill-67"></path>
                        <path d="M67.6858183,74.7852996 L66.1561129,74.1650508 C66.2098773,73.9076587 66.4131506,73.2770847 66.5155237,72.961429 C65.7156874,73.8088319 64.7442471,73.8221071 63.7823813,73.4327 C61.7076678,72.5904597 61.6273895,70.7761768 62.6003028,68.3696705 L65.4483388,61.32568 C66.4205155,58.9184363 68.0371277,57.6897389 70.3968658,58.6462938 C73.2574223,59.8064024 72.7978478,62.01378 72.1173241,63.6982606 L71.9398282,64.1356061 L69.9962111,63.3472042 L70.1994845,62.8442201 C70.5618412,61.9474038 70.8380278,60.887597 69.6802537,60.4185385 C68.7839362,60.0549444 68.1210884,60.499665 67.5731342,61.8559521 L64.5395008,69.360151 C64.0180606,70.6507995 64.0666694,71.5358156 64.9836088,71.9082598 C66.1200245,72.3684682 66.7460475,71.4510015 67.4088953,69.8100342 L68.3111047,67.5790562 L66.8911375,67.0023207 L67.5716612,65.3178401 L70.9573404,66.6903525 L67.6858183,74.7852996 Z" id="Fill-69"></path>
                    </g>
                </g>
                <g id="compass" transform="translate(126.677578, 124.909984)" fill="#4D4D4D">
                    <path d="M58.8503466,106.608693 L58.8503466,88.9919414 C58.8503466,88.6294878 58.5572298,88.3355337 58.1951444,88.3355337 C57.833059,88.3355337 57.5394034,88.6294878 57.5394034,88.9919414 L57.5394034,106.714948 C56.3470001,106.796392 55.1454369,106.841699 53.9325586,106.841699 C52.7212966,106.841699 51.5202723,106.796931 50.3289466,106.714948 L50.3262525,88.9919414 C50.3262525,88.6289485 50.0331358,88.3355337 49.6710504,88.3355337 C49.3089649,88.3355337 49.0158482,88.6294878 49.0158482,88.9919414 L49.0180035,106.609232 C24.0174068,104.272162 4.05906506,84.2946084 1.72329088,59.2680554 L38.5256088,59.2680554 C38.5649425,59.2680554 38.5983492,59.2529532 38.6355276,59.2459414 C38.9184068,60.1278038 39.2756429,60.9756862 39.6991535,61.7841948 L28.3618929,68.337484 C28.0483011,68.5187108 27.9410764,68.9194593 28.1221191,69.2333699 C28.2433531,69.4442618 28.4637295,69.5613041 28.6900328,69.5613041 C28.8010293,69.5613041 28.9136421,69.5332571 29.0170951,69.4733875 L40.3543557,62.9200983 C41.6200382,64.9211438 43.3135418,66.6233809 45.3060892,67.8984406 L38.7686156,79.2342825 C38.5881117,79.5481932 38.6953364,79.9489416 39.0089282,80.1301684 C39.1118424,80.1905773 39.2244552,80.2186243 39.3359905,80.2186243 C39.5622938,80.2186243 39.7826702,80.1010427 39.9039042,79.8906902 L46.4376061,68.5613207 C47.2576864,68.9965885 48.1192557,69.3622782 49.0158482,69.6513781 L49.0158482,79.0045129 C49.0158482,79.0379535 49.0298574,79.0670793 49.0347068,79.0989018 C49.040095,79.1344999 49.0444055,79.16848 49.0557207,79.2029993 C49.0729628,79.2569359 49.0982873,79.3038607 49.1284611,79.3507855 C49.1392374,79.3675058 49.1419315,79.3869229 49.1543243,79.4036433 L53.414216,84.9326776 C53.4266088,84.9488586 53.4422346,84.961264 53.4562438,84.9763662 C53.4664814,84.9866142 53.4756412,84.9974015 53.4864176,85.00711 C53.5402994,85.0578104 53.6001081,85.0988022 53.6663827,85.1290066 C53.6776978,85.1338609 53.689013,85.1360184 53.7003282,85.1408727 C53.7741462,85.1689197 53.8517359,85.1877974 53.9325586,85.1877974 L53.9330974,85.1877974 C54.0133812,85.1877974 54.0909709,85.1689197 54.1647889,85.1408727 C54.1766429,85.1360184 54.1879581,85.1338609 54.1992733,85.1290066 C54.2655478,85.0988022 54.3253566,85.0578104 54.3786995,85.00711 C54.3900147,84.9974015 54.3991746,84.9866142 54.4094121,84.9758269 C54.4234214,84.9607246 54.4390471,84.9488586 54.4514399,84.9326776 L58.7156422,79.4036433 C58.733962,79.3804505 58.7393501,79.3518642 58.7538982,79.3270534 C58.7743733,79.2919946 58.7937707,79.2574752 58.8072411,79.2186409 C58.8250221,79.16848 58.8325656,79.1188583 58.8379537,79.0670793 C58.8395702,79.0455047 58.8503466,79.0266269 58.8503466,79.0045129 L58.8498077,69.6513781 C59.7162264,69.3719868 60.5497772,69.0197812 61.3456107,68.6033912 L67.8556047,79.8901508 C67.9768386,80.1010427 68.1977538,80.218085 68.4240572,80.218085 C68.5350536,80.218085 68.6476665,80.190038 68.7511195,80.1301684 C69.0641725,79.9489416 69.171936,79.5476538 68.9908933,79.2337432 L62.4814382,67.9486016 C64.4928442,66.6778568 66.2030512,64.9729229 67.4822041,62.965405 L78.7424138,69.4723088 C78.8458667,69.5327177 78.9584796,69.5607647 79.069476,69.5607647 C79.2957794,69.5607647 79.5161558,69.443183 79.6379286,69.2328305 C79.8189713,68.9189199 79.7112078,68.5176321 79.3976159,68.3364053 L68.1417168,61.831659 C68.5760038,61.0091268 68.9418609,60.1450635 69.2295895,59.2459414 C69.2667679,59.2529532 69.3007134,59.2680554 69.3395083,59.2680554 L95.3099765,59.2680554 C95.6715231,59.2680554 95.9651787,58.97518 95.9651787,58.6127265 C95.9651787,58.250273 95.6715231,57.9563188 95.3099765,57.9563188 L69.5819762,57.9563188 C69.8018137,57.0005634 69.9375958,56.0140641 69.9785459,55.0027541 L82.9672824,55.0022147 C83.3293678,55.0022147 83.6224845,54.7082606 83.6224845,54.3463464 C83.6224845,53.9844323 83.328829,53.6904781 82.9672824,53.6904781 L69.9785459,53.6910175 C69.9375958,52.6791681 69.8018137,51.6915901 69.5819762,50.7358347 L106.248512,50.7358347 C106.329335,51.9294502 106.374595,53.1327744 106.374595,54.3463464 C106.374595,81.6317616 85.4690124,104.118982 58.8503466,106.608693 Z M50.3289466,21.7168992 L53.9330974,17.0422196 L57.5420975,21.7217535 L57.5420975,38.6820975 C56.5700706,38.4577215 55.5651758,38.3218014 54.5349566,38.2829671 L54.533879,25.2287071 C54.533879,24.8662536 54.2407622,24.5722995 53.8786768,24.5728388 C53.5165914,24.5728388 53.2234746,24.8662536 53.2234746,25.2287071 L53.2245523,38.2856639 C52.2331279,38.3288132 51.2659504,38.4647332 50.3289466,38.6810187 L50.3289466,21.7168992 Z M53.9336362,8.60762401 L57.5420975,13.2871579 L57.5420975,19.5750794 L54.4519787,15.5681341 C54.3275118,15.4074032 54.1362316,15.3130142 53.9330974,15.3130142 C53.7299631,15.3130142 53.5386829,15.4074032 53.4147549,15.5681341 L50.3289466,19.5702251 L50.3289466,13.282843 L53.9336362,8.60762401 Z M50.3262525,78.775822 L50.3262525,70.0111348 C51.2810373,70.2317352 52.2670734,70.3681946 53.2773564,70.408647 L53.2773564,82.6069342 L50.3262525,78.775822 Z M57.5394034,78.781755 L54.5882995,82.6085523 L54.5882995,70.408647 C55.5985825,70.3681946 56.5846187,70.2317352 57.5388646,70.0111348 L57.5394034,78.781755 Z M66.7235489,61.6881878 C66.7090009,61.707605 66.6885258,61.7200104 66.6755942,61.7421243 C66.6632014,61.763699 66.6626626,61.7885098 66.652425,61.8111631 C64.0865757,66.176247 59.3471364,69.1130914 53.9325586,69.1130914 C45.7985685,69.1130914 39.180811,62.488606 39.180811,54.3463464 C39.180811,46.2040869 45.7985685,39.5801408 53.9325586,39.5801408 C59.3471364,39.5801408 64.0871146,42.5169852 66.6529638,46.8815298 C66.6632014,46.9047225 66.6637402,46.9289939 66.676133,46.9511079 C66.6944528,46.9823911 66.7192384,47.0077413 66.7413299,47.0352489 C67.9552859,49.158191 68.6589817,51.6079885 68.6810732,54.2195956 C68.6724521,54.2616661 68.65521,54.3015791 68.65521,54.3463464 C68.65521,54.3916531 68.6724521,54.4315662 68.6810732,54.474176 C68.6584429,57.0976492 67.9482813,59.558234 66.7235489,61.6881878 Z M53.9325586,1.85099406 C81.1908008,1.85099406 103.654644,22.7778309 106.142365,49.4240981 L69.3395083,49.4240981 C69.3007134,49.4240981 69.2667679,49.4397397 69.2295895,49.4462121 C68.9418609,48.5476294 68.5760038,47.6835661 68.1422556,46.8615732 C71.8940424,44.6922457 75.6458292,42.5245363 79.3976159,40.3562876 C79.7112078,40.1750608 79.8189713,39.773773 79.6379286,39.4604017 C79.4568859,39.146491 79.0560056,39.0391573 78.7424138,39.2203841 C74.9890105,41.3891722 71.2350685,43.5584997 67.4822041,45.7278272 C66.2030512,43.7203094 64.493383,42.0153754 62.481977,40.7446306 L68.9898157,29.4573316 C69.1708584,29.143421 69.0636337,28.7421331 68.7500418,28.5614457 C68.4369888,28.380219 68.0361086,28.4875527 67.8550659,28.8014633 L61.3461496,40.0898411 C60.5513936,39.6739904 59.7183817,39.3217848 58.8530406,39.0423935 L58.8530406,14.9872376 L62.7179791,20.0000993 C62.8472953,20.1673025 63.0412696,20.2552191 63.2373992,20.2552191 C63.376953,20.2552191 63.5181232,20.2104518 63.6372019,20.1187597 C63.9238528,19.8970805 63.9771958,19.4855447 63.7557417,19.198063 L54.4525175,7.13245973 C54.3285895,6.97226822 54.1367704,6.87787928 53.9336362,6.87787928 C53.7310408,6.87787928 53.5392217,6.97226822 53.4152937,7.13245973 L44.1115306,19.198063 C43.8906154,19.4855447 43.9434195,19.8970805 44.2300705,20.1187597 C44.5167214,20.3404388 44.9283781,20.2870416 45.1492933,20.0000993 L49.0180035,14.9823833 L49.0180035,39.0407754 C48.1208722,39.3298753 47.2587641,39.6961044 46.4376061,40.1313722 L39.9022877,28.8020027 C39.7217838,28.4886314 39.3203648,28.3812977 39.0073117,28.5625245 C38.6937199,28.7437512 38.5864952,29.1444997 38.7675379,29.4584103 L45.306628,40.7942522 C43.3135418,42.069312 41.6200382,43.7715491 40.3548945,45.7720552 L29.0165563,39.2203841 C28.7029645,39.0391573 28.3020842,39.146491 28.1210415,39.4604017 C27.9399988,39.773773 28.0477623,40.1750608 28.3613541,40.3562876 L39.6991535,46.9079587 C39.2756429,47.7164674 38.9184068,48.5643497 38.6355276,49.4462121 C38.5983492,49.4397397 38.5649425,49.4240981 38.5256088,49.4240981 L12.5562182,49.4240981 C12.1941328,49.4240981 11.9004772,49.7169735 11.9004772,50.079427 C11.9004772,50.4418805 12.1941328,50.7358347 12.5562182,50.7358347 L38.2836797,50.7358347 C38.0638422,51.6915901 37.9275213,52.6786287 37.88711,53.6899388 L24.7922265,53.6910175 C24.4301411,53.6910175 24.1370243,53.9844323 24.1370243,54.3463464 C24.1370243,54.7088 24.4301411,55.0027541 24.7922265,55.0027541 L37.88711,55.0016754 C37.9275213,56.0135248 38.0638422,57.0005634 38.2836797,57.9563188 L1.61714381,57.9563188 C1.53578236,56.7632426 1.4910605,55.5599185 1.4910605,54.3463464 C1.4910605,25.4007647 25.0163746,1.85099406 53.9325586,1.85099406 Z M91.9412891,16.2989741 C81.7888883,6.1362519 68.2904305,0.539257493 53.9325586,0.539257493 C39.5746867,0.539257493 26.0762288,6.1362519 15.923828,16.2989741 C5.77142731,26.4616964 0.180117344,39.9738775 0.180117344,54.3463464 C0.180117344,68.7188154 5.77142731,82.2309965 15.923828,92.3937187 C26.0762288,102.556441 39.5746867,108.153435 53.9325586,108.153435 C68.2904305,108.153435 81.7888883,102.556441 91.9412891,92.3937187 C102.094229,82.2309965 107.685539,68.7188154 107.685539,54.3463464 C107.685539,39.9738775 102.094229,26.4616964 91.9412891,16.2989741 Z" id="compass-detail"></path>
                    <path d="M25.8398495,90.7105752 C26.2482732,91.0282614 26.3215524,91.6172484 26.0041889,92.0255479 C25.8193744,92.2634081 25.5434998,92.3869227 25.2643923,92.3869227 C25.0634134,92.3869227 24.8613568,92.3232776 24.6900128,92.1900544 L24.6533732,92.1609286 C24.2449495,91.8437818 24.1716703,91.2547948 24.4890339,90.8459559 C24.8063974,90.4376563 25.3942474,90.3632239 25.8032099,90.6814494 L25.8398495,90.7105752 Z M22.2775649,87.6413705 L22.3260585,87.6866772 C22.6951485,88.0491307 22.7016143,88.6418933 22.3395289,89.0118979 C22.1563309,89.199597 21.9133242,89.2934466 21.6708563,89.2934466 C21.4343154,89.2934466 21.1977745,89.203912 21.0156541,89.025382 C20.6390206,88.671019 20.6104633,88.0685479 20.9644665,87.6915315 C21.3190084,87.3145151 21.9014702,87.2864681 22.2775649,87.6413705 Z M18.4084775,24.828498 C18.1951058,24.828498 17.9806564,24.7556837 17.804463,24.6068189 C17.4095097,24.2729517 17.3604773,23.6812679 17.6945442,23.2864525 L17.7322615,23.2427639 C18.0701001,22.8511846 18.6617218,22.807496 19.0523645,23.1472962 C19.4435461,23.4854783 19.4861127,24.0771621 19.1477352,24.4687413 L19.1240273,24.4967883 C18.938674,24.7157707 18.6746534,24.828498 18.4084775,24.828498 Z M12.5270143,32.4796654 C12.0787181,32.2213094 11.9256939,31.647964 12.1832487,31.1997514 C12.43326,30.7461451 13.0087172,30.5681546 13.4618628,30.8178807 C13.9150084,31.0670675 14.0868912,31.6247713 13.8379575,32.0783776 L13.8056284,32.135011 C13.632668,32.4365162 13.3174597,32.6047982 12.9936303,32.6047982 C12.8352179,32.6047982 12.6741115,32.5643458 12.5270143,32.4796654 Z M16.2427003,80.5895998 L16.2739517,80.6349065 C16.5659908,81.0620839 16.456072,81.6451378 16.0293285,81.9369345 C15.8682221,82.0475044 15.6839465,82.1009016 15.5018261,82.1009016 C15.2033212,82.1009016 14.9096656,81.9585091 14.7286229,81.6931414 C14.4333509,81.2681215 14.5260275,80.6683472 14.9506157,80.3722356 C15.3757428,80.0766634 15.9479671,80.1651193 16.2427003,80.5895998 Z M19.0822689,84.2666693 L19.1194473,84.3103579 C19.4535142,84.7051733 19.4044818,85.2968571 19.0095285,85.6307243 C18.833874,85.7801285 18.6188858,85.8529428 18.405514,85.8529428 C18.1393381,85.8529428 17.8753175,85.7402155 17.6899643,85.5212331 C17.3515869,85.1296539 17.3822995,84.5244859 17.773481,84.1852251 C18.1641238,83.847043 18.7438915,83.87509 19.0822689,84.2666693 Z M21.6753285,21.3884257 C21.4290888,21.3884257 21.183388,21.29134 20.9996512,21.0998653 C20.6418764,20.7260851 20.6537304,20.1333225 21.0271309,19.7751839 L21.0686199,19.7363496 C21.4441757,19.3809078 22.0368751,19.3992463 22.391417,19.7773414 C22.745959,20.1543578 22.7276392,20.7476597 22.3504669,21.1020227 L22.323526,21.1273729 C22.1419445,21.3021273 21.9080977,21.3884257 21.6753285,21.3884257 Z M33.3027962,13.2710848 C32.9617247,13.2710848 32.6325071,13.0833857 32.4670901,12.7586877 C32.2332433,12.296991 32.4169801,11.7328148 32.8776691,11.4981909 L32.9364003,11.4690651 C33.4024775,11.2430711 33.9623089,11.4394001 34.1869958,11.9048724 C34.4122216,12.3703447 34.2171696,12.9307453 33.7521701,13.1567394 L33.7263068,13.1696841 C33.589986,13.2381836 33.4455829,13.2710848 33.3027962,13.2710848 Z M37.6604295,11.3996488 C37.3193579,11.3996488 36.9901404,11.212489 36.8252622,10.8872517 C36.5908766,10.425555 36.7746134,9.8613788 37.2353024,9.62675487 L37.2940335,9.5981685 C37.7601107,9.37217441 38.3199422,9.56796404 38.5446291,10.0339757 C38.7698548,10.499448 38.5748029,11.0598486 38.1098033,11.2853034 L38.0839401,11.2982481 C37.9476192,11.3667475 37.8032161,11.3996488 37.6604295,11.3996488 Z M37.9735363,97.4710886 C38.4584722,97.6501579 38.7068671,98.1889839 38.5274408,98.6744127 C38.3878871,99.0530472 38.0295734,99.2871317 37.6491682,99.2871317 C37.5414047,99.2871317 37.4320247,99.2687933 37.3248,99.2294196 L37.2763064,99.2110812 C36.7924482,99.0293151 36.5472862,98.488871 36.7283289,98.0045209 C36.9099105,97.5196314 37.4492668,97.2736808 37.9336638,97.4565257 L37.9735363,97.4710886 Z M29.1600973,15.5797304 C28.8486607,15.5797304 28.54369,15.4238538 28.3658802,15.1401476 C28.0910832,14.7016436 28.2236323,14.1234439 28.661691,13.8483676 L28.7053353,13.82086 C29.1444716,13.5479411 29.7215452,13.6827824 29.9947257,14.1229046 C30.2668286,14.5624873 30.1321242,15.140687 29.6929879,15.4130665 L29.6563483,15.4357199 C29.5022464,15.5328056 29.3298248,15.5797304 29.1600973,15.5797304 Z M33.7129441,95.6360058 C34.1752496,95.8679329 34.3627581,96.4304909 34.1316054,96.8938058 C33.9678049,97.2217399 33.6369709,97.4115966 33.2937441,97.4115966 C33.1525739,97.4115966 33.0097872,97.379774 32.8756216,97.3123533 C32.4111609,97.0842018 32.2020997,96.5135532 32.4300195,96.0491596 C32.659017,95.5847661 33.2016063,95.3846615 33.6655282,95.6122737 L33.7129441,95.6360058 Z M42.4147941,98.8669122 C42.9137392,99.0012142 43.2100888,99.51469 43.0759232,100.015221 C42.9638492,100.433229 42.5855993,100.709384 42.172865,100.709384 C42.0920424,100.709384 42.0106809,100.698597 41.9293195,100.676483 C41.4282191,100.547575 41.1087003,100.031941 41.2380165,99.5303316 C41.3667939,99.0298005 41.8587343,98.7223623 42.3598347,98.8523493 L42.4147941,98.8669122 Z M25.2708043,18.2950035 C24.9895415,18.2950035 24.710434,18.1682527 24.5261584,17.9260776 C24.2125666,17.5150812 24.2912339,16.927173 24.7023517,16.6132623 C25.1107755,16.2950368 25.7131735,16.3565244 26.0310759,16.7653634 C26.3484394,17.1736629 26.2907859,17.7507839 25.8823622,18.0684701 L25.838718,18.1029895 C25.6689905,18.2324372 25.4690891,18.2950035 25.2708043,18.2950035 Z M29.6562944,93.3763346 C30.0921978,93.6546471 30.2204364,94.2339255 29.9418677,94.6702721 C29.7635191,94.9507421 29.4607036,95.1033825 29.1514223,95.1033825 C28.9795395,95.1033825 28.8055014,95.0559183 28.6492443,94.9566751 C28.210108,94.6832168 28.0597779,94.095848 28.3324196,93.6568046 C28.6050613,93.2172218 29.167048,93.0721325 29.6067232,93.3450514 L29.6562944,93.3763346 Z M13.7880091,76.6444119 L13.8052512,76.6751557 C14.0601119,77.1255258 13.9022384,77.697253 13.4523257,77.9523729 C13.306845,78.0348958 13.1478938,78.0742694 12.9910979,78.0742694 C12.6656521,78.0742694 12.3488273,77.90383 12.1758669,77.5996279 L12.1473096,77.5478488 C11.8983758,77.0942426 12.0637928,76.5241334 12.5169384,76.2744072 C12.970084,76.0262991 13.5390753,76.1908056 13.7880091,76.6444119 Z M7.89469185,45.8906077 C7.38712569,45.7919039 7.05521406,45.3000026 7.1543565,44.7924598 L7.16621049,44.7331296 C7.27181873,44.2261262 7.76699208,43.902507 8.27401942,44.0076832 C8.77996912,44.1128595 9.10487612,44.609615 8.99872906,45.116079 L8.99226324,45.1489803 C8.9049748,45.5966536 8.51325442,45.9078674 8.0741181,45.9078674 C8.01538698,45.9078674 7.95503941,45.9019344 7.89469185,45.8906077 Z M96.1079115,36.3110473 L96.0793541,36.2447054 C95.8816081,35.7657489 96.1089891,35.2188324 96.5874591,35.0208854 C97.0637739,34.8229383 97.6122901,35.0510898 97.8094974,35.5295069 C98.0196362,36.0030697 97.8116526,36.5667065 97.3391096,36.7765196 C97.2124875,36.833153 97.0815548,36.8595819 96.9527774,36.8595819 C96.5982355,36.8595819 96.2614745,36.6578592 96.1079115,36.3110473 Z M97.7075531,40.6349237 C97.5491407,40.1446406 97.8131613,39.6133657 98.3024077,39.4515561 C98.7894988,39.2897465 99.3164624,39.5470238 99.4818794,40.0356888 L99.5050485,40.1090425 C99.6553786,40.6041799 99.3751935,41.1279037 98.880559,41.2778472 C98.7900376,41.3048155 98.6984386,41.3182996 98.6084561,41.3182996 C98.207037,41.3182996 97.8357917,41.0577862 97.7134801,40.6527228 L98.6095337,40.3808826 L97.7075531,40.6349237 Z M98.8675196,45.1215806 C98.7619113,44.6151165 99.0862795,44.1189004 99.592768,44.0126454 C100.096562,43.9074691 100.594969,44.2316277 100.700038,44.7386312 L100.710276,44.7844772 C100.815345,45.2909413 100.491516,45.7876968 99.9850272,45.8934124 C99.9209079,45.9063572 99.8562498,45.9139083 99.7926693,45.9139083 C99.3589212,45.9139083 98.9693561,45.6097062 98.8772183,45.167966 L98.8675196,45.1215806 Z M8.98628237,41.2727772 C8.49164784,41.1228336 8.21200151,40.5996492 8.3617928,40.1045118 L8.38119023,40.0435635 C8.54014142,39.5511229 9.06926028,39.2809009 9.55958427,39.4400137 C10.0520635,39.5985871 10.3220111,40.1271652 10.16306,40.6196057 L10.1539001,40.6481921 C10.0310496,41.0527161 9.65980434,41.3132296 9.25784643,41.3132296 C9.16786389,41.3132296 9.07680372,41.3002848 8.98628237,41.2727772 Z M11.7429808,72.4648696 L11.7634559,72.5128731 C11.9644349,72.9902115 11.7413644,73.5398248 11.2645108,73.7404687 C11.145971,73.7911691 11.0225817,73.8149011 10.9013478,73.8149011 C10.5360295,73.8149011 10.189031,73.5996944 10.038162,73.2410164 C9.83448899,72.7663749 10.0467831,72.1957263 10.5214814,71.9918462 C10.9967185,71.7879661 11.5393078,71.98861 11.7429808,72.4648696 Z M10.5311801,36.7850955 C10.0570207,36.5785186 9.83987717,36.0267478 10.0462443,35.5521063 C10.2520726,35.0785435 10.8113653,34.8396047 11.2849859,35.0440241 C11.7586066,35.248983 11.9870652,35.777561 11.7833922,36.2522026 C11.7828533,36.25436 11.7639947,36.2991273 11.7629171,36.3002061 C11.6093541,36.652951 11.2655885,36.8638429 10.9040419,36.8638429 C10.7790362,36.8638429 10.6524141,36.8384927 10.5311801,36.7850955 Z M10.1496973,68.1504861 C10.3016438,68.6456235 10.0241528,69.1698866 9.53005707,69.3219876 C9.43845808,69.3500346 9.34578145,69.3635188 9.25472128,69.3635188 C8.85437983,69.3635188 8.48421215,69.1046234 8.35974529,68.7017175 C8.20294938,68.2081982 8.4702029,67.6634391 8.96268216,67.5064838 C9.45408379,67.3489891 9.97619802,67.6030302 10.1329939,68.0965495 L10.1496973,68.1504861 Z M8.99000021,63.6522328 C9.08860383,64.160315 8.7566922,64.6522162 8.24912605,64.7509201 C8.1893173,64.7627861 8.12896973,64.7676404 8.06969979,64.7676404 C7.63110229,64.7676404 7.23884309,64.456966 7.15209346,64.0092927 C7.0459464,63.5028286 7.36762049,62.9893528 7.8735702,62.8836372 C8.38059753,62.778461 8.87253798,63.0858992 8.97814622,63.5929027 L8.99000021,63.6522328 Z M14.9703903,28.4112325 C14.5458021,28.1156603 14.4418103,27.5315276 14.7370823,27.1065077 C15.0323544,26.6825665 15.6299031,26.5579731 16.0534137,26.8540847 C16.4780019,27.1496569 16.596003,27.7149118 16.3001921,28.1399317 L16.2737901,28.1776873 C16.0916697,28.4398188 15.8007082,28.5795145 15.5043586,28.5795145 C15.3195441,28.5795145 15.1336521,28.5250386 14.9703903,28.4112325 Z M81.9789832,90.7469284 C82.3857904,90.4287028 82.974718,90.5025959 83.2926204,90.9114348 C83.609984,91.3197344 83.5367048,91.908182 83.128281,92.2258682 L83.0911026,92.254994 C82.9208363,92.3882172 82.7182409,92.4524017 82.5172619,92.4524017 C82.2381544,92.4524017 81.9622798,92.3283477 81.7774654,92.0904875 C81.4606407,91.6821879 81.5339198,91.0937403 81.9418048,90.7760541 L81.9789832,90.7469284 Z M88.7276194,84.3330112 C89.0740791,83.9484437 89.6657008,83.9176999 90.0498777,84.2645118 C90.4340547,84.6113237 90.4642284,85.2035469 90.1183076,85.5881144 C89.9313379,85.8087149 89.6630067,85.9235997 89.3930591,85.9235997 C89.180765,85.9235997 88.9668544,85.8518641 88.7933551,85.7046173 C88.3984019,85.3707502 88.3434425,84.7860781 88.6780482,84.3901839 L88.7276194,84.3330112 Z M92.8558241,80.4368516 C93.2836453,80.7275695 93.3951805,81.3100841 93.1047578,81.7388795 L93.0654242,81.7960523 C92.882765,82.0517115 92.5944976,82.1876315 92.3024585,82.1876315 C92.1138723,82.1876315 91.9236697,82.1315375 91.7593304,82.0139559 C91.3385138,81.7124506 91.2409879,81.1272392 91.5411092,80.7059949 L91.5551185,80.6865777 C91.84608,80.2577823 92.4290806,80.1472124 92.8558241,80.4368516 Z M85.5115251,87.7140769 C85.8892362,87.3591745 86.4813967,87.377513 86.834861,87.7550687 C87.189403,88.1320851 87.1710832,88.725387 86.7944497,89.0792107 L86.7599654,89.1115726 C86.5789227,89.2820121 86.3488476,89.3661531 86.1182337,89.3661531 C85.8698387,89.3661531 85.620905,89.2674492 85.4371682,89.0711202 C85.0826263,88.6935645 85.1009461,88.1008019 85.4775796,87.7464389 L85.5115251,87.7140769 Z M81.9847485,18.0690095 C81.5763248,17.7513233 81.5025068,17.1628756 81.8198703,16.7540367 C82.1377727,16.3457371 82.7261615,16.2723834 83.1335076,16.5900696 L83.170686,16.6191953 C83.5791097,16.9363422 83.6529277,17.5253292 83.3350254,17.9336287 C83.1507497,18.1709495 82.8743363,18.2955429 82.5957676,18.2955429 C82.3947887,18.2955429 82.1921933,18.2313584 82.0213881,18.0981352 L81.9847485,18.0690095 Z M91.5993015,28.18896 L91.5551185,28.1258543 C91.2690064,27.6949013 91.3848521,27.1129261 91.8148286,26.8259837 C92.2453438,26.5374233 92.8261892,26.6550049 93.1133789,27.0859578 C93.4135003,27.5066628 93.3213625,28.098886 92.9010848,28.4003912 C92.7335125,28.5190516 92.5416935,28.5767637 92.3525685,28.5767637 C92.0643011,28.5767637 91.7808831,28.4435405 91.5993015,28.18896 Z M85.5496733,21.1350858 L85.4952528,21.082228 C85.1299345,20.7170777 85.1299345,20.1232364 85.4952528,19.7570073 C85.8611099,19.3913176 86.4538092,19.3913176 86.8191276,19.7570073 C87.195761,20.1119097 87.2210855,20.7106053 86.8665435,21.0876217 C86.6811903,21.2855688 86.4317177,21.3864301 86.1817064,21.3864301 C85.955403,21.3864301 85.7290996,21.3033678 85.5496733,21.1350858 Z M88.7431373,24.4977053 L88.7258952,24.4777487 C88.383746,24.0904844 88.419308,23.4977219 88.8067178,23.1552249 C89.1946665,22.8116491 89.7857494,22.848326 90.1278985,23.2355903 L90.1720816,23.2873694 C90.5061484,23.6821848 90.457116,24.2738686 90.0621628,24.6077358 C89.8865082,24.7566006 89.6720588,24.829415 89.4581483,24.829415 C89.1919724,24.829415 88.9284906,24.7166876 88.7431373,24.4977053 Z M42.1806778,9.97540064 C41.7630942,9.97540064 41.3816114,9.69277319 41.2743867,9.26775328 C41.1472257,8.76668285 41.4500412,8.25644322 41.9516804,8.12969236 C42.4511643,8.00078403 42.983516,8.29689562 43.1122934,8.79742668 C43.2410708,9.29903647 42.9614245,9.80442182 42.460863,9.93386951 L42.4118306,9.94573554 C42.3342409,9.96569206 42.2571899,9.97540064 42.1806778,9.97540064 Z M99.9740892,62.9753832 C100.480039,63.0810989 100.804407,63.577315 100.699338,64.0848578 L100.689639,64.1307039 C100.596962,64.5724441 100.207936,64.8755674 99.7736491,64.8755674 C99.7106074,64.8755674 99.6459493,64.8696344 99.5812912,64.8556109 C99.0753415,64.7504347 98.7509733,64.2536792 98.8565816,63.7472151 L98.8662803,63.7008297 C98.9718885,63.1938262 99.469756,62.870207 99.9740892,62.9753832 Z M94.0579261,32.1320445 L94.0239806,32.0700174 C93.7804351,31.613175 93.9528567,31.0452232 94.4092352,30.8019695 C94.8656137,30.5587157 95.4324498,30.7307732 95.6754565,31.1876157 C95.9313948,31.6385251 95.7783706,32.219961 95.328458,32.4756202 C95.1802831,32.5597612 95.0191767,32.5996742 94.8613031,32.5996742 C94.539629,32.5996742 94.2292701,32.4340891 94.0579261,32.1320445 Z M97.3026317,72.0698384 C97.7794852,72.269943 98.0036333,72.8190169 97.8042708,73.2958159 L97.7767912,73.3578429 C97.6221505,73.7068123 97.2800013,73.914468 96.9211488,73.914468 C96.7945267,73.914468 96.6652105,73.8880391 96.5418213,73.8330238 C96.0692783,73.6232107 95.8564453,73.0692825 96.0665842,72.596259 L96.0773605,72.5714482 C96.2772618,72.0941099 96.8247005,71.8697339 97.3026317,72.0698384 Z M98.8880485,67.5968815 C99.3783725,67.7608485 99.6434708,68.2910447 99.480209,68.7818672 C99.3552034,69.1869306 98.9791087,69.4544558 98.5755343,69.4544558 C98.4860906,69.4544558 98.3955693,69.4420504 98.3061255,69.4140034 C97.8120298,69.2619023 97.530767,68.7500446 97.6832524,68.2549072 L97.7037275,68.189644 C97.8669892,67.6982821 98.3950304,67.4329144 98.8880485,67.5968815 Z M95.291549,76.3663151 C95.746311,76.6133444 95.9149609,77.1823749 95.6681825,77.6370599 L95.636931,77.6931539 C95.4645094,77.9973559 95.1476847,78.1683348 94.8211612,78.1683348 C94.6649041,78.1683348 94.5064918,78.1295005 94.3604722,78.0464382 C93.9105595,77.7913184 93.7532248,77.2195911 94.0080855,76.769221 L94.0226336,76.7433315 C94.2688732,76.2886465 94.8378646,76.1198251 95.291549,76.3663151 Z M78.165394,15.4079965 C77.7289518,15.129684 77.601252,14.5504055 77.8792819,14.1145983 C78.1578506,13.6777124 78.7365406,13.5498828 79.1719052,13.8281953 C79.6115804,14.1011142 79.7613717,14.6879437 79.48873,15.1280659 C79.3103814,15.4166263 79.0070271,15.5773572 78.6950517,15.5773572 C78.5312512,15.5773572 78.3658342,15.5331292 78.2149652,15.4392797 L78.165394,15.4079965 Z M65.4066249,98.8779692 C65.9077253,98.7544545 66.416369,99.0575778 66.5419135,99.5602664 C66.6669192,100.061876 66.3624873,100.571037 65.8613869,100.69617 C65.7816419,100.716666 65.7018969,100.726914 65.6226908,100.726914 C65.2029519,100.726914 64.809615,100.44968 64.7007739,100.027896 C64.5725353,99.5262863 64.8543369,99.020901 65.3543596,98.8909139 L65.4066249,98.8779692 Z M60.8488209,9.00465085 C60.3385607,8.92212795 59.992101,8.44101405 60.0745401,7.92969568 C60.1569792,7.41891668 60.6402985,7.07264411 61.1478647,7.15408828 C61.6597414,7.2301388 62.0299091,7.70855588 61.9550134,8.22041361 C61.8865836,8.68642529 61.4997126,9.02352864 61.0454893,9.02352864 C61.0002287,9.02352864 60.9544292,9.02029245 60.9086297,9.01382006 L60.8488209,9.00465085 Z M46.8240461,9.02304321 C46.3741334,9.02304321 45.976486,8.69726653 45.9015904,8.23772724 C45.8175348,7.72694824 46.1629169,7.2447556 46.6731771,7.16115397 L46.73568,7.15144539 C47.2459402,7.07485551 47.722255,7.43029729 47.7982282,7.94215502 C47.8731239,8.45401275 47.5191207,8.93081174 47.0077829,9.00578352 L46.9770702,9.01063781 C46.9258826,9.01926766 46.8746949,9.02304321 46.8240461,9.02304321 Z M74.1061579,13.1531256 C73.6438525,12.9211985 73.4558051,12.3581011 73.6874967,11.8953256 C73.9186494,11.4330895 74.4795585,11.244851 74.9434805,11.4762387 C75.40848,11.7022328 75.6191577,12.2696452 75.3939319,12.7361962 C75.231209,13.0722208 74.9030691,13.2712466 74.5576871,13.2712466 C74.4245991,13.2712466 74.2882783,13.2415816 74.1595009,13.1790152 L74.1061579,13.1531256 Z M74.0976985,95.6628662 C74.5616204,95.4303997 75.1225295,95.6191776 75.3542211,96.081953 C75.5853738,96.5452679 75.3978653,97.107826 74.935021,97.3392137 L74.8816781,97.3651033 C74.7502066,97.4287484 74.6117305,97.4589528 74.474332,97.4589528 C74.1267947,97.4589528 73.7932666,97.2647813 73.6310825,96.9303748 C73.4063956,96.4638237 73.6009087,95.9034231 74.0664471,95.6779684 L74.0976985,95.6628662 Z M78.1588204,93.4079414 C78.5947239,93.1290895 79.1734139,93.2574584 79.4514438,93.693805 C79.7294737,94.1301516 79.6017739,94.70943 79.1658705,94.9877425 L79.1162993,95.0190257 C78.9627363,95.1144934 78.7924699,95.1603394 78.6232812,95.1603394 C78.3102282,95.1603394 78.0041798,95.0028448 77.8269088,94.7169811 C77.5537283,94.276859 77.6889715,93.699738 78.1286467,93.4262798 L78.1588204,93.4079414 Z M65.4103428,9.93537973 C64.9097812,9.80593204 64.6085822,9.29515304 64.7373596,8.79354325 C64.8666758,8.29247282 65.3747808,7.99150695 65.8774976,8.11987591 C66.3780591,8.24878423 66.7024273,8.76603562 66.5731111,9.26710604 C66.4637311,9.69050785 66.097874,9.97583213 65.6856785,9.97583213 C65.6102441,9.97583213 65.5326543,9.96666292 65.4556034,9.9467064 L65.4103428,9.93537973 Z M69.9453009,11.3543421 C69.4447393,11.2248944 69.1435403,10.7141154 69.2723177,10.2125057 C69.4016339,9.7119746 69.9097389,9.41046936 70.4124557,9.53937768 C70.9130172,9.668286 71.2373854,10.184998 71.1080692,10.6860684 C70.999228,11.1100096 70.6333709,11.3947945 70.2206366,11.3947945 C70.1452022,11.3947945 70.0681513,11.3861647 69.9905615,11.3656688 L69.9453009,11.3543421 Z M69.851385,97.4863526 C70.3400925,97.3164525 70.8729831,97.5742691 71.0432494,98.0623948 C71.2135158,98.5515992 70.9554222,99.0855709 70.4677923,99.2560104 C70.3578735,99.2970021 70.2452606,99.3169586 70.1337254,99.3169586 C69.7533202,99.3169586 69.3912348,99.0877284 69.2500646,98.7117907 C69.068483,98.2274406 69.3023299,97.6918508 69.786188,97.5100847 L69.851385,97.4863526 Z" id="circle-center-dotted"></path>
                    <path d="M49.0266245,54.3463464 C49.0266245,51.6381929 51.2271555,49.4348854 53.9325586,49.4348854 C56.6379616,49.4348854 58.8390314,51.6381929 58.8390314,54.3463464 C58.8390314,57.0544999 56.6379616,59.2572681 53.9325586,59.2572681 C51.2271555,59.2572681 49.0266245,57.0544999 49.0266245,54.3463464 Z M47.7156814,54.3463464 C47.7156814,57.7777889 50.5046011,60.569544 53.9325586,60.569544 C57.360516,60.569544 60.1499745,57.7777889 60.1499745,54.3463464 C60.1499745,50.914904 57.360516,48.1231488 53.9325586,48.1231488 C50.5046011,48.1231488 47.7156814,50.914904 47.7156814,54.3463464 Z" id="circle-center-inner-01"></path>
                    <path d="M53.9325586,64.1626343 C48.5255242,64.1626343 44.1271563,59.7592554 44.1271563,54.3461846 C44.1271563,48.9341925 48.5255242,44.5308137 53.9325586,44.5308137 C59.3401317,44.5308137 63.7395772,48.9341925 63.7395772,54.3461846 C63.7395772,59.7592554 59.3401317,64.1626343 53.9325586,64.1626343 M53.9325586,43.2185378 C47.8029698,43.2185378 42.8162132,48.2103642 42.8162132,54.3461846 C42.8162132,60.4825444 47.8029698,65.4749102 53.9325586,65.4749102 C60.0626861,65.4749102 65.0499816,60.4825444 65.0499816,54.3461846 C65.0499816,48.2103642 60.0626861,43.2185378 53.9325586,43.2185378" id="circle-center-inner-02"></path>
                </g>
            </g>
        </g>
    </g>
</svg>