<?xml version="1.0" encoding="UTF-8"?>
<svg width="422px" height="421px" viewBox="0 0 422 421" version="1.1" xmlns="http://www.w3.org/2000/svg" xmlns:xlink="http://www.w3.org/1999/xlink">
  <!-- Generator: Sketch 49 (51002) - http://www.bohemiancoding.com/sketch -->
  <title>sg-wayfinder-chart</title>
  <desc>Created with Sketch.</desc>
  <defs></defs>
  <g id="Page-1" stroke="none" stroke-width="1" fill="none" fill-rule="evenodd">
    <g id="wayfinder-result-chart-v6" transform="translate(-39.000000, -40.000000)" fill="#4D4D4D">
      <g id="sg-wayfinder-chart" transform="translate(39.000000, 40.000000)">
        <g id="chart-details" fill-rule="nonzero">
          <path id="chart-background" fill="none" stroke="#E7E7E7" stroke-width="24"></path>
          <path id="chart-foreground" fill="none" stroke="#DF827B" stroke-width="24"></path>
        </g>
        <g id="directional-lines" fill-rule="nonzero">
          <path d="M46.970225,209.066219 C57.045685,209.066219 88.5952805,209.066219 141.619011,209.066219 C142.09582,209.066219 142.48235,209.452367 142.48235,209.928704 C142.48235,210.405041 142.09582,210.791188 141.619011,210.791188 C99.5528842,210.791188 68.0032887,210.791188 46.970225,210.791188 M13.8130201,210.791188 C11.2270763,210.791188 7.11463368,210.791188 1.47569242,210.791188 C0.998883568,210.791188 0.612353626,210.405041 0.612353626,209.928704 C0.612353626,209.452367 0.998883568,209.066219 1.47569242,209.066219 C7.09717452,209.066219 11.2096171,209.066219 13.8130201,209.066219"
            id="west"></path>
          <path d="M211.690671,407.094154 C211.690671,412.896314 211.690671,417.035734 211.690671,419.512413 C211.690671,419.98875 211.304141,420.374898 210.827332,420.374898 C210.350523,420.374898 209.963993,419.98875 209.963993,419.512413 C209.963993,413.835515 209.963993,409.696095 209.963993,407.094154 M209.963993,373.969994 C209.963993,353.196897 209.963993,322.037251 209.963993,280.491057 C209.963993,280.01472 210.350523,279.628572 210.827332,279.628572 C211.304141,279.628572 211.690671,280.01472 211.690671,280.491057 C211.690671,322.005067 211.690671,353.164713 211.690671,373.969994"
            id="south"></path>
          <path d="M407.493221,209.066219 C410.876331,209.066219 415.220027,209.066219 420.524308,209.066219 C421.001116,209.066219 421.387646,209.452367 421.387646,209.928704 C421.387646,210.405041 421.001116,210.791188 420.524308,210.791188 C414.549875,210.791188 410.206179,210.791188 407.493221,210.791188 M374.34039,210.791188 C353.460523,210.791188 322.140722,210.791188 280.380989,210.791188 C279.90418,210.791188 279.51765,210.405041 279.51765,209.928704 C279.51765,209.452367 279.90418,209.066219 280.380989,209.066219 C322.133945,209.066219 353.453745,209.066219 374.34039,209.066219"
            id="east"></path>
          <path d="M211.863339,46.9253422 C211.863339,63.7851028 211.863339,95.4037577 211.863339,141.781307 C211.863339,142.257644 211.476809,142.643791 211,142.643791 C210.523191,142.643791 210.136661,142.257644 210.136661,141.781307 L210.136661,46.9253422 M210.136661,13.8027405 C210.136661,11.042126 210.136661,6.90120414 210.136661,1.37997504 C210.136661,0.903638062 210.523191,0.517490642 211,0.517490642 C211.476809,0.517490642 211.863339,0.903638062 211.863339,1.37997504 C211.863339,6.89865861 211.863339,11.0376713 211.863339,13.7970131"
            id="north"></path>
        </g>
        <g id="labels" transform="translate(86.393701, 85.286089)">
          <g id="producing">
            <path d="M8.9134301,81.7347149 L9.23476051,80.8809695 C9.90671152,79.0965725 8.95736535,78.4113295 7.2292452,77.7563306 L6.35140152,77.4245105 C5.03678968,76.9259163 3.83072377,76.7643268 3.22596786,78.3681238 L2.82710464,79.4292567 L8.9134301,81.7347149 Z M0.0161095946,81.0244125 L1.35053537,77.4806779 C2.36276926,74.7898246 4.17531403,73.9689156 7.11553042,75.0827595 L8.14671677,75.4733394 C10.880179,76.509413 12.4385885,78.1633286 11.2307996,81.3717867 L10.8215987,82.4579789 L18.1208818,85.2231461 L17.2438996,87.5510712 L0.0161095946,81.0244125 Z"
              id="Fill-1"></path>
            <path d="M13.5724627,69.298289 L13.9713259,68.5084881 C14.694104,67.0783782 14.2668121,66.2721591 12.4956181,65.3717515 L11.8564032,65.0468444 C10.4789036,64.3469114 9.4933755,64.2795105 8.71977037,65.8089936 L8.30970796,66.6229897 L13.5724627,69.298289 Z M5.34278583,67.9062001 L6.98820432,64.6502157 C8.24682024,62.1581088 9.96546416,61.3259663 12.81781,62.7759508 L13.4820078,63.1138197 C15.8924166,64.3382703 16.1939331,65.638763 16.0776339,66.5408988 C17.0321489,65.7545544 18.0056164,65.5990137 20.2204703,66.7240911 C21.6220912,67.4369858 24.2650985,68.8117924 25.3608955,69.1513895 L24.2892198,71.2727912 C23.1693014,70.9824486 20.4642679,69.5454258 19.2831848,68.9457301 C17.242349,67.9079283 16.5755668,67.9416288 15.8036846,69.4711119 L15.4168821,70.2358535 L22.8936292,74.035366 L21.7719879,76.2561409 L5.34278583,67.9062001 Z"
              id="Fill-3"></path>
            <path d="M17.1479312,55.8682175 L25.0157883,61.030439 C26.4914961,61.9991117 27.4623792,61.8755433 28.0654121,60.9492122 C28.7141033,59.9546162 28.4315393,59.0749473 26.8851905,58.0613407 L19.0647146,52.9293632 C17.6579248,52.0064887 16.6405221,51.9995758 15.9771858,53.0183671 C15.3422783,53.989632 15.6946218,54.9142348 17.1479312,55.8682175 M20.6222625,50.9444917 L28.050767,55.818963 C30.9117277,57.6958202 31.4880549,59.7921626 29.872788,62.2678514 C28.2738892,64.7210731 26.1408755,64.8092128 23.3962141,63.0075336 L15.9211899,58.1028183 C13.1076104,56.256205 12.6587816,54.0138273 14.1379353,51.745526 C15.6472407,49.4314267 17.8776011,49.1436765 20.6222625,50.9444917"
              id="Fill-5"></path>
            <path d="M34.6643156,51.5880843 L35.2957773,50.8207504 C36.5785145,49.2644798 35.889334,48.1903851 34.2525302,46.8345891 L28.2575212,41.8667934 C26.8128265,40.6691303 25.6886008,40.1670797 24.3714045,41.7665561 L23.7382199,42.53389 L34.6643156,51.5880843 Z M20.5214699,43.0964287 L22.8750213,40.2396653 C25.3853614,37.1902044 27.5614489,38.0240751 30.0261307,40.0677065 L35.5533585,44.6475147 C37.7208312,46.4440092 39.7608055,48.7442827 37.0385425,52.0495216 L34.7203115,54.8639433 L20.5214699,43.0964287 Z"
              id="Fill-7"></path>
            <path d="M32.0016667,30.1818881 L41.8267964,40.3888115 C42.8037098,41.4032822 43.7547789,41.7134994 44.6265923,40.8683952 C45.5397565,39.9844058 45.2046425,39.0399284 44.247543,38.0453323 L34.4224132,27.8384089 L36.1875768,26.1283258 L45.9739402,36.2954999 C47.9656719,38.3650548 48.2215302,40.5011464 46.1591575,42.4989797 C44.1545036,44.4397815 42.1291744,44.2868332 40.0228664,42.0980305 L30.2166891,31.9109817 L32.0016667,30.1818881 Z"
              id="Fill-9"></path>
            <path d="M55.3085458,27.3469004 L55.7143008,27.8705539 C57.067679,29.617794 58.4718843,32.0606464 55.5764647,34.3177141 C52.9644705,36.3535685 51.1054061,35.0366576 49.4134679,32.8530396 L43.695854,25.4726355 C41.9186297,23.1801391 41.8600494,20.9852876 44.0146,19.3045844 C46.6041958,17.2851483 48.4753209,18.6642754 50.0147779,20.6508752 L50.489451,21.2618043 L48.5295939,22.7895592 L47.886933,21.9600091 C47.0745615,20.9118379 46.2992334,20.3613968 45.3628094,21.0907096 C44.4711821,21.786322 44.7339322,22.6668549 45.5971308,23.7806988 L51.5344209,31.4445326 C52.4312171,32.6015822 53.3142296,33.2444836 54.2713291,32.4978884 C55.2077531,31.7685756 54.8157817,30.8128647 53.885388,29.6117452 L53.3271518,28.8910735 L55.3085458,27.3469004 Z"
              id="Fill-11"></path>
            <polygon id="Fill-13" points="54.1055812 12.488188 64.1417725 27.9722603 62.0621703 29.3289204 52.0259789 13.8448482"></polygon>
            <path d="M68.3157081,25.3549431 L59.7276574,9.01626138 L62.287963,7.66219357 L69.434765,15.4487316 C70.4177087,16.490854 71.1034433,17.3791639 71.5987918,18.0237935 L71.6470345,17.9978701 C70.4194317,15.9585593 69.2116428,13.6600141 67.8100219,10.9933559 L65.2393786,6.10160233 L67.2621234,5.03182827 L75.8501742,21.37051 L73.3880768,22.6727309 L65.2798679,13.7697566 C64.6105014,13.0292103 64.1289365,12.4087759 63.7740085,11.9715338 L63.7498872,11.9844956 C64.8878965,13.9140638 66.1594346,16.2739612 67.7161211,19.2335542 L70.3642972,24.2713432 L68.3157081,25.3549431 Z"
              id="Fill-15"></path>
            <path d="M87.6189653,16.5121112 L85.8202041,17.2137724 C85.6591082,16.9502174 85.3274401,16.2485562 85.1620367,15.8977256 C85.1594523,17.263891 84.3419119,18.0571484 83.2116559,18.4978469 C80.7702339,19.4501014 79.2480064,17.9664163 78.149625,15.1303917 L74.9320134,6.83056953 C73.833632,3.99454492 74.2247419,1.64674515 77.0004164,0.564009364 C80.3670633,-0.748580942 81.7437014,1.50416621 82.5121376,3.48903779 L82.7128615,4.00405019 L80.4239207,4.89668072 L80.1956296,4.303898 C79.7847057,3.24622155 79.1713351,2.12114414 77.8093421,2.6517106 C76.7566188,3.06302922 76.5472803,3.9755344 77.1666812,5.57328257 L80.5936314,14.4149047 C81.1828807,15.9357467 81.933226,16.6520978 83.0135165,16.2312739 C84.3496652,15.7102127 84.1472184,14.4235458 83.3977346,12.4905212 L82.3786089,9.86188408 L80.7090691,10.5125625 L79.9389099,8.5276909 L83.9223733,6.9748767 L87.6189653,16.5121112 Z"
              id="Fill-17"></path>
          </g>
          <g id="seeking" transform="translate(175.051852, 6.213056)">
            <path d="M4.0736599,11.6691087 L3.55849746,12.6472866 C2.85122596,13.9918491 2.89085383,14.9812605 3.91428691,15.5239246 C4.98682409,16.091648 5.80436448,15.3683839 6.5254196,13.998762 C7.47735019,12.1901699 7.42221575,11.347658 6.38844497,9.04997686 C5.37793403,6.76439334 4.91532161,5.39390735 6.17566048,2.99771714 C7.29557883,0.871130743 9.02369898,-0.870924594 11.8019579,0.600662826 C14.5560956,2.05928853 14.0995135,4.28784047 13.0958944,6.19407761 L12.6711869,7.00116078 L10.5019912,5.85188817 L10.9008544,5.09405953 C11.5443767,3.87220127 11.7373473,2.97352193 10.7862782,2.46974303 C9.83607052,1.96596413 9.15464328,2.66848942 8.53782671,3.84195726 C7.855538,5.13726527 7.78920437,5.85361639 8.68600052,7.70368608 C10.1229419,10.715126 10.3141895,12.1296818 8.88586288,14.8430021 C7.67635106,17.1415474 5.78799644,18.8922439 2.88740793,17.3558478 C0.0359235346,15.8453753 0.270244911,13.6246003 1.40222391,11.4738187 L1.90446422,10.519836 L4.0736599,11.6691087 Z"
              id="Fill-20"></path>
            <polygon id="Fill-22" points="20.4425587 17.6524984 17.0397299 15.3945666 13.5266322 20.721834 17.4110259 23.3003524 15.9111968 25.0233973 10.2099509 21.2394388 20.3693333 5.8348651 26.0249209 9.58771547 24.7637206 11.5017296 21.176536 9.12195762 18.2862852 13.5038835 21.689114 15.7618154"></polygon>
            <polygon id="Fill-24" points="29.6891214 24.8582649 26.5163066 22.2857953 22.5147522 27.253591 26.1372573 30.1907171 24.4806397 31.7634059 19.163612 27.4532015 30.7375373 13.0881579 36.0114912 17.3629336 34.5736884 19.1481947 31.2285784 16.4366026 27.93688 20.5230012 31.1096948 23.0946067"></polygon>
            <path d="M40.4567056,21.352465 L42.1813798,23.0634122 L36.1708642,29.1580135 L36.1906782,29.1778882 C37.9610106,28.4451188 42.123661,26.7013353 44.7485773,25.6116866 L46.6894819,27.5369342 L39.1799987,30.276178 L33.913798,40.8443014 L31.9935688,38.9389284 L36.1803404,30.9182153 L33.5140733,31.8514592 L29.2299549,36.1962282 L27.5052807,34.4844168 L40.4567056,21.352465 Z"
              id="Fill-26"></path>
            <polygon id="Fill-28" points="51.7434149 33.431493 37.7030848 45.3752871 36.0990171 43.4776911 50.1393473 31.533897"></polygon>
            <path d="M40.8159409,49.1893168 L55.8840115,38.5762594 L57.547521,40.9517109 L50.7530625,49.047602 C49.8467901,50.1588535 49.055094,50.952975 48.4804898,51.5267472 L48.5132258,51.5716811 C50.3731518,50.0923167 52.4941048,48.5991264 54.9518948,46.8665763 L59.4634428,43.6892264 L60.7789161,45.5678119 L45.7108456,56.1808692 L44.1102238,53.8952857 L51.887626,44.7019689 C52.5345942,43.942412 53.0868001,43.3841939 53.4736026,42.9763317 L53.4589575,42.9530006 C51.6946554,44.3303995 49.5220138,45.8944472 46.792859,47.8171026 L42.1460593,51.0903692 L40.8159409,49.1893168 Z"
              id="Fill-30"></path>
            <path d="M52.0209824,67.2754113 L51.098342,65.5756976 C51.3386937,65.3812718 51.9899693,64.9621761 52.3156071,64.7530604 C50.9639518,64.9241551 50.0757704,64.2129887 49.4959973,63.1440787 C48.2434117,60.8368923 49.5166727,59.1337221 52.1803554,57.679417 L59.97671,53.4210595 C62.6403927,51.9658903 65.0120352,52.0557582 66.4360544,54.6792106 C68.1633131,57.860017 66.1112781,59.516525 64.2461833,60.5353163 L63.7628955,60.7997354 L62.5895656,58.6377203 L63.1460789,58.3335519 C64.1384989,57.7917519 65.1739926,57.0373798 64.4744744,55.7507129 C63.9343291,54.7543886 63.0056584,54.6636565 61.5049678,55.4837014 L53.1994811,60.0194398 C51.7711544,60.7997354 51.1586453,61.6379267 51.7125741,62.6575821 C52.3974472,63.9209179 53.6440025,63.5553973 55.4591317,62.5633936 L57.9289824,61.2145105 L57.0718141,59.6357728 L58.9360474,58.6178456 L60.9794677,62.3819295 L52.0209824,67.2754113 Z"
              id="Fill-32"></path>
          </g>
          <g id="receiving" transform="translate(166.092505, 168.442864)">
            <path d="M5.62888189,69.1147255 L6.44039195,68.7682155 C7.91093088,68.13914 8.101317,67.2465094 7.32340449,65.4154503 L7.04256343,64.7544025 C6.43694605,63.3303414 5.72536716,62.642506 4.15403558,63.3139232 L3.31668125,63.6716667 L5.62888189,69.1147255 Z M0.224845144,62.7392869 L3.57167804,61.309177 C6.13284514,60.2143436 7.98071041,60.6861502 9.23501896,63.6371021 L9.52619773,64.3232092 C10.5849513,66.8161803 9.98191834,68.0060663 9.31427472,68.621316 C10.5487693,68.6342777 11.3947384,69.1449695 12.3664829,71.4340095 C12.9832995,72.8831299 14.1247547,75.6413842 14.7450172,76.6083286 L12.5646223,77.5407084 C11.8926713,76.5953669 10.7443243,73.749837 10.225716,72.529707 C9.3289198,70.4186747 8.7982508,70.014269 7.22605774,70.6856861 L6.43953048,71.0226909 L9.72433712,78.7539256 L7.44228813,79.7295111 L0.224845144,62.7392869 Z"
              id="Fill-34"></path>
            <polygon id="Fill-36" points="21.8101513 63.095475 18.2384733 65.0742978 21.3173872 70.6668484 25.3964744 68.4063242 26.223491 70.5389594 20.2388197 73.8545677 11.3346074 57.6835243 17.2710361 54.3947036 18.3780323 56.4037704 14.6133837 58.4897434 17.1452607 63.0894262 20.7169387 61.1106034"></polygon>
            <path d="M34.4597151,58.5960295 L34.8353185,59.1430141 C36.0861812,60.964568 37.3491045,63.4834625 34.3296323,65.5702996 C31.6047848,67.4540698 29.8241147,66.0308728 28.2605364,63.7547945 L22.9727988,56.0572603 C21.3308262,53.6671189 21.3962984,51.4722675 23.6430269,49.9185892 C26.3446145,48.0512372 28.1338994,49.5349222 29.5579187,51.6070694 L29.9955483,52.243922 L27.9521281,53.6567496 L27.3585714,52.7909066 C26.6073646,51.6986655 25.8639111,51.1041546 24.8878592,51.7781641 C23.9574655,52.4219296 24.17025,53.3162884 24.967115,54.4767945 L30.4572993,62.4698559 C31.2869003,63.6770242 32.1311465,64.3700442 33.1295967,63.6796166 C34.1065101,63.0047429 33.7696731,62.0282933 32.9099204,60.7753269 L32.3938965,60.0235471 L34.4597151,58.5960295 Z"
              id="Fill-38"></path>
            <polygon id="Fill-40" points="41.4373233 48.7118529 38.3187815 51.3499952 42.4245744 56.2322436 45.9850533 53.2199396 47.2109331 55.1486437 41.9852218 59.5694547 30.1132259 45.451548 35.2967249 41.0653015 36.7724327 42.8203185 33.4850416 45.6010398 36.8611647 49.6165811 39.980568 46.9784387"></polygon>
            <polygon id="Fill-42" points="39.9810849 36.5062321 52.923895 49.6476892 51.1595929 51.3966574 38.2159213 38.2552003"></polygon>
            <path d="M44.3523846,31.8455427 L50.9805782,36.1116773 C53.1411592,37.4925326 55.6041181,38.986587 57.2409218,40.1721525 L57.2581513,40.1505496 C55.8996042,38.7671019 54.0637996,36.5376858 52.3339565,34.6530516 L47.0393272,28.6941162 L48.741603,26.6962829 L60.6773481,41.1183581 L58.7071533,43.4307292 L42.6139267,33.8839894 L44.3523846,31.8455427 Z"
              id="Fill-44"></path>
            <polygon id="Fill-46" points="52.3218958 21.7217471 67.2667754 32.5110839 65.8177733 34.5305201 50.8720323 23.7411833"></polygon>
            <path d="M70.8915203,27.1975559 L55.0420913,17.800308 L56.5143532,15.300424 L66.6677052,18.1744697 C68.0503736,18.5443108 69.097928,18.9400754 69.8560266,19.2295538 L69.8835938,19.1820275 C67.77384,18.0915147 65.542618,16.768555 62.9564681,15.2347513 L58.2114603,12.4211937 L59.3761753,10.4458274 L75.2247428,19.8439394 L73.8084769,22.2470425 L62.253504,18.9288419 C61.2964045,18.6497328 60.5624273,18.3758084 60.0317583,18.1891596 L60.0171132,18.2133548 C61.9950613,19.2580696 64.3107078,20.5983116 67.1811447,22.3006176 L72.0691575,25.1988585 L70.8915203,27.1975559 Z"
              id="Fill-48"></path>
            <path d="M81.5160995,6.65288207 L80.7252649,8.41826851 C80.4263328,8.34395464 79.7001088,8.07694318 79.3365661,7.94386951 C80.2893582,8.91859095 80.2635139,10.0583583 79.7664425,11.1687458 C78.6939053,13.564936 76.5720908,13.5796259 73.8058924,12.3327083 L65.7080213,8.68700819 C62.941823,7.44009061 61.5781071,5.49237596 62.7979566,2.76868627 C64.2771103,-0.535688539 66.8331085,0.099435803 68.7688443,0.972191701 L69.2719461,1.19858977 L68.2674655,3.44355989 L67.6885539,3.18259723 C66.658229,2.71856761 65.4332106,2.3487265 64.8353465,3.68551202 C64.3727341,4.71985737 64.8611908,5.51657117 66.4213232,6.21823235 L75.0455559,10.1032923 C76.5298784,10.7721171 77.5653722,10.7531066 78.0391838,9.69370188 C78.6267102,8.38197569 77.5834632,7.60859298 75.6968315,6.75916818 L73.1322185,5.60384676 L72.3982412,7.24393656 L70.461644,6.37118066 L72.211301,2.46106142 L81.5160995,6.65288207 Z"
              id="Fill-50"></path>
          </g>
          <g id="following" transform="translate(0.000000, 161.539468)">
            <polygon id="Fill-52" points="17.2455364 0.292462375 19.6550838 6.74048664 17.5117324 7.54670571 15.9731369 3.42919892 10.9912232 5.30173558 12.4419482 9.18593139 10.2994583 9.99215045 8.8478718 6.10709053 0.870607291 9.10556872 -0.00034459026 6.77505123"></polygon>
            <path d="M18.0733284,14.1824157 L9.65584981,18.3768287 C8.07590347,19.1649013 7.69082386,20.0670371 8.18186498,21.0573127 C8.70908807,22.121902 9.60846865,22.3223766 11.2625019,21.4980112 L19.6317378,17.3277934 C21.1375973,16.5768777 21.6570671,15.7006653 21.1169218,14.6110166 C20.6026209,13.5706225 19.6291534,13.4081689 18.0733284,14.1824157 M20.5500709,19.6790496 L12.6003736,23.6401516 C9.5395506,25.1661783 7.4453033,24.6045037 6.13327588,21.9542638 C4.83330913,19.3299473 5.83606678,17.4409924 8.77369875,15.9763179 L16.7725001,11.9910207 C19.784219,10.4900534 21.9396311,11.2375126 23.1413896,13.6639468 C24.3681309,16.1404997 23.4877028,18.2152392 20.5500709,19.6790496"
              id="Fill-55"></path>
            <polygon id="Fill-57" points="26.972458 21.3038446 28.2939616 23.4105564 14.5749619 32.0698503 17.0422282 36.0024365 15.0427432 36.9693809 11.3866405 31.1426551"></polygon>
            <polygon id="Fill-59" points="32.7032524 30.0335639 34.2108348 32.0106584 21.3343583 41.8883541 24.1470763 45.5781241 22.2440766 46.7239403 18.0753959 41.2540939"></polygon>
            <path d="M37.3421265,42.8864067 L30.4796115,49.3335668 C29.1917054,50.5433275 29.082298,51.5180489 29.8360892,52.3259962 C30.6475992,53.1944315 31.5659323,53.1270306 32.9132802,51.8593742 L39.7361673,45.4502351 C40.9646316,44.2966419 41.2110136,43.3063664 40.3814126,42.4180565 C39.5897165,41.571224 38.6110801,41.6947924 37.3421265,42.8864067 M41.2911309,47.4385632 L34.8111111,53.5262516 C32.3145546,55.8705949 30.1470819,55.9371317 28.1303674,53.7768449 C26.1326054,51.6372967 26.552144,49.5374979 28.9470463,47.2873431 L35.4675555,41.1616336 C37.9227611,38.8544472 40.2022257,38.9486357 42.0500909,40.9265944 C43.9341382,42.9451665 43.6851717,45.1875442 41.2911309,47.4385632"
              id="Fill-61"></path>
            <path d="M37.1435564,62.3509371 L46.939396,46.5030725 L48.9569719,48.1794551 C46.6654467,51.7335591 42.8723694,57.4522705 40.9211271,60.0316531 L40.9642009,60.0670818 C43.4512811,57.5749748 48.4021816,53.1420662 51.4828185,50.2783899 L53.3720346,51.8493505 C51.0917086,55.52011 47.9473225,60.8439209 45.789326,63.9339953 L45.8323998,63.9685599 C48.1825053,61.46954 52.8361968,57.0055232 55.940955,53.9837139 L57.8723834,55.5892391 L44.0009025,68.0497738 L42.0264003,66.4088199 C44.2929428,62.7985485 47.3563502,57.658794 49.2963934,54.7458631 L49.254181,54.7112985 C46.6352951,57.275127 42.1849119,61.1895668 39.0973831,63.9746087 L37.1435564,62.3509371 Z"
              id="Fill-63"></path>
            <polygon id="Fill-65" points="63.0669093 58.9189325 52.8722065 74.2975827 50.8072493 72.9201838 61.0019522 57.5415336"></polygon>
            <path d="M58.2951095,77.7320068 L67.0761308,61.4909701 L69.6209299,62.8752819 L67.1338497,73.1634321 C66.8159652,74.563298 66.4593143,75.6278874 66.1991486,76.3995418 L66.2473913,76.4254653 C67.2561792,74.2686349 68.4923968,71.9839155 69.9250308,69.3328114 L72.555116,64.4704377 L74.5666616,65.5652711 L65.7847788,81.807172 L63.3373265,80.474707 L66.2181011,68.7642239 C66.4601757,67.7946872 66.7065578,67.048092 66.8728226,66.5088844 L66.8487013,66.4950586 C65.8804026,68.5179512 64.6304015,70.8890821 63.0392559,73.8305287 L60.3307765,78.8398019 L58.2951095,77.7320068 Z"
              id="Fill-67"></path>
            <path d="M79.1715935,87.6229235 L77.3823086,86.896203 C77.4451963,86.5946269 77.6829636,85.8558088 77.8027087,85.4859677 C76.8671462,86.4788355 75.7308598,86.4943896 74.6057726,86.038137 C72.1789957,85.051318 72.0850948,82.9255957 73.2231042,80.1059892 L76.5544305,71.8528293 C77.6915784,69.0323587 79.5825174,67.5927435 82.3426854,68.7135004 C85.6886568,70.0727529 85.151096,72.6590483 84.3550925,74.6326864 L84.1474769,75.1451065 L81.8740426,74.2213678 L82.1118099,73.6320415 C82.5356559,72.581278 82.8587093,71.3395451 81.5044696,70.7899681 C80.4560537,70.3639595 79.6807256,70.8850207 79.0397878,72.4741278 L75.4913696,81.2664954 C74.8814448,82.7786962 74.9383022,83.8156339 76.0108394,84.2520118 C77.3400963,84.7912194 78.0723506,83.7162607 78.8476787,81.7936054 L79.9029864,79.1796582 L78.2420613,78.5039205 L79.0380648,76.5302824 L82.9982684,78.1384 L79.1715935,87.6229235 Z"
              id="Fill-69"></path>
          </g>
        </g>
        <g id="compass" transform="translate(148.419948, 146.204724)">
          <path d="M68.9174137,125.256081 L68.9174137,104.557907 C68.9174137,104.132056 68.5741557,103.786685 68.1501312,103.786685 C67.7261067,103.786685 67.3822178,104.132056 67.3822178,104.557907 L67.3822178,125.380922 C65.9858394,125.476612 64.5787342,125.529843 63.1583783,125.529843 C61.7399153,125.529843 60.3334411,125.477246 58.9383247,125.380922 L58.9351698,104.557907 C58.9351698,104.131422 58.5919118,103.786685 58.1678873,103.786685 C57.7438628,103.786685 57.4006048,104.132056 57.4006048,104.557907 L57.4031288,125.256715 C28.1258762,122.510858 4.75341748,99.0389437 2.01808073,69.6348878 L45.1158825,69.6348878 C45.1619447,69.6348878 45.201066,69.617144 45.2446043,69.6089058 C45.5758734,70.6450185 45.994219,71.6412077 46.4901763,72.5911361 L33.2135395,80.2906895 C32.8463039,80.5036154 32.7207372,80.9744606 32.9327494,81.3432787 C33.0747219,81.5910585 33.3327964,81.7285732 33.5978117,81.7285732 C33.7277954,81.7285732 33.8596721,81.6956204 33.9808219,81.6252788 L47.2574587,73.9257254 C48.7396516,76.2767824 50.7228496,78.2767652 53.0562465,79.7748511 L45.4004585,93.0934943 C45.1890772,93.4623124 45.314644,93.9331575 45.6818795,94.1460834 C45.8023984,94.2170587 45.9342751,94.2500115 46.0648898,94.2500115 C46.3299051,94.2500115 46.5879796,94.1118632 46.7299521,93.864717 L54.3813231,80.5536784 C55.3416881,81.0650808 56.3506394,81.4947349 57.4006048,81.8344024 L57.4006048,92.8235346 C57.4006048,92.8628245 57.4170105,92.8970448 57.4226894,92.9344335 C57.4289993,92.9762583 57.4340472,93.0161819 57.447298,93.0567392 C57.4674897,93.12011 57.4971461,93.1752426 57.5324815,93.2303752 C57.5451013,93.2500202 57.5482562,93.2728337 57.562769,93.2924786 L62.551367,99.7886203 C62.5658797,99.8076316 62.5841784,99.8222069 62.6005841,99.8399507 C62.6125729,99.8519911 62.6232997,99.8646653 62.6359195,99.8760721 C62.6990184,99.9356406 62.7690581,99.9838024 62.8466698,100.01929 C62.8599205,100.024993 62.8731713,100.027528 62.8864221,100.033232 C62.9728675,100.066184 63.0637299,100.088364 63.1583783,100.088364 L63.1590093,100.088364 C63.2530266,100.088364 63.343889,100.066184 63.4303345,100.033232 C63.4442162,100.027528 63.457467,100.024993 63.4707178,100.01929 C63.5483294,99.9838024 63.6183692,99.9356406 63.6808371,99.8760721 C63.6940878,99.8646653 63.7048146,99.8519911 63.7168034,99.839317 C63.7332091,99.8215732 63.7515078,99.8076316 63.7660206,99.7886203 L68.7596665,93.2924786 C68.7811201,93.2652292 68.78743,93.2316426 68.8044667,93.2024921 C68.8284443,93.161301 68.8511599,93.1207437 68.8669346,93.0751167 C68.8877572,93.0161819 68.8965911,92.9578807 68.9029009,92.8970448 C68.9047939,92.8716964 68.9174137,92.8495166 68.9174137,92.8235346 L68.9167827,81.8344024 C69.9314128,81.5061417 70.9075526,81.0923303 71.8395231,80.6031076 L79.4631307,93.8640833 C79.6051032,94.1118632 79.8638086,94.2493778 80.1288239,94.2493778 C80.2588076,94.2493778 80.3906843,94.216425 80.5118342,94.1460834 C80.8784387,93.9331575 81.0046365,93.4616787 80.7926242,93.0928606 L73.1696477,79.833786 C75.5251291,78.3407697 77.5278878,76.3376184 79.0258554,73.9789568 L92.2122608,81.6240114 C92.3334106,81.6949867 92.4652873,81.7279395 92.595271,81.7279395 C92.8602864,81.7279395 93.1183608,81.5897911 93.2609643,81.342645 C93.4729765,80.9738269 93.3467788,80.502348 92.9795432,80.2894221 L79.7981858,72.6469024 C80.3067628,71.6804976 80.7352042,70.6652972 81.0721523,69.6089058 C81.1156905,69.617144 81.1554428,69.6348878 81.200874,69.6348878 L111.613907,69.6348878 C112.0373,69.6348878 112.381189,69.2907843 112.381189,68.8649325 C112.381189,68.4390806 112.0373,68.0937097 111.613907,68.0937097 L81.484819,68.0937097 C81.7422625,66.970779 81.9012717,65.8117269 81.9492268,64.6235242 L97.1598445,64.6228905 C97.583869,64.6228905 97.927127,64.2775195 97.927127,63.8523014 C97.927127,63.4270833 97.583238,63.0817124 97.1598445,63.0817124 L81.9492268,63.0823461 C81.9012717,61.8935097 81.7422625,60.7331901 81.484819,59.6102594 L124.423612,59.6102594 C124.51826,61.0126554 124.571263,62.4264582 124.571263,63.8523014 C124.571263,95.9103268 100.089526,122.330885 68.9174137,125.256081 Z M58.9383247,25.5154962 L63.1590093,20.0231481 L67.3853727,25.5211996 L67.3853727,45.4481508 C66.2470688,45.1845282 65.0702745,45.0248338 63.8638238,44.9792068 L63.8625618,29.6415696 C63.8625618,29.2157178 63.5193039,28.8703469 63.0952794,28.8709806 C62.6712549,28.8709806 62.3279969,29.2157178 62.3279969,29.6415696 L62.3292589,44.9823753 C61.1682394,45.033072 60.0356144,45.1927664 58.9383247,45.4468834 L58.9383247,25.5154962 Z M63.1596402,10.1132208 L67.3853727,15.6112723 L67.3853727,22.9990413 L63.7666515,18.2912239 C63.6208931,18.1023788 63.3968921,17.9914799 63.1590093,17.9914799 C62.9211265,17.9914799 62.6971254,18.1023788 62.551998,18.2912239 L58.9383247,22.993338 L58.9383247,15.6062026 L63.1596402,10.1132208 Z M58.9351698,92.5548424 L58.9351698,82.2570858 C60.053282,82.5162724 61.2079917,82.6766005 62.3910958,82.7241286 L62.3910958,97.056071 L58.9351698,92.5548424 Z M67.3822178,92.5618132 L63.9262917,97.0579721 L63.9262917,82.7241286 C65.1093959,82.6766005 66.2641055,82.5162724 67.3815868,82.2570858 L67.3822178,92.5618132 Z M78.1374231,72.4783361 C78.1203864,72.5011496 78.0964088,72.5157248 78.081265,72.5417069 C78.0667523,72.5670552 78.0661213,72.5962058 78.0541325,72.6228215 C75.0493635,77.7514212 69.4991854,81.2019618 63.1583783,81.2019618 C53.6329703,81.2019618 45.883165,73.4187589 45.883165,63.8523014 C45.883165,54.2858439 53.6329703,46.5032748 63.1583783,46.5032748 C69.4991854,46.5032748 75.0499945,49.9538154 78.0547635,55.0817813 C78.0667523,55.1090308 78.0673833,55.1375476 78.081896,55.1635296 C78.1033497,55.2002847 78.1323751,55.230069 78.1582457,55.2623881 C79.5798636,57.7566632 80.4039351,60.6349654 80.4298056,63.70338 C80.4197098,63.7528092 80.3995182,63.7997036 80.3995182,63.8523014 C80.3995182,63.9055329 80.4197098,63.9524273 80.4298056,64.0024902 C80.4033041,67.0848464 79.5716608,69.9758228 78.1374231,72.4783361 Z M63.1583783,2.17475946 C95.0794742,2.17475946 121.386031,26.762 124.299307,58.0690813 L81.200874,58.0690813 C81.1554428,58.0690813 81.1156905,58.0874588 81.0721523,58.0950633 C80.7352042,57.0393056 80.3067628,56.0241052 79.7988167,55.0583341 C84.1923922,52.5095601 88.5859677,49.9626873 92.9795432,47.4151807 C93.3467788,47.2022548 93.4729765,46.730776 93.2609643,46.3625916 C93.048952,45.9937734 92.5794963,45.8676655 92.2122608,46.0805915 C87.8167923,48.6287317 83.4206929,51.1775057 79.0258554,53.7262797 C77.5278878,51.3676181 75.5257601,49.3644668 73.1702787,47.8714505 L80.7913622,34.6098411 C81.0033745,34.241023 80.8778077,33.7695442 80.5105722,33.557252 C80.1439677,33.3443261 79.6745119,33.470434 79.4624997,33.8392521 L71.8401541,47.1021289 C70.9094455,46.61354 69.9339368,46.1997286 68.9205686,45.8714678 L68.9205686,17.6087202 L73.4466518,23.4984033 C73.5980891,23.6948528 73.8252451,23.7981472 74.0549251,23.7981472 C74.2183512,23.7981472 74.3836703,23.7455495 74.5231188,23.6378191 C74.8588049,23.3773651 74.9212728,22.8938458 74.6619364,22.5560794 L63.7672825,8.38002917 C63.6221551,8.19181787 63.3975231,8.08091895 63.1596402,8.08091895 C62.9223884,8.08091895 62.6977564,8.19181787 62.552629,8.38002917 L51.6573441,22.5560794 C51.3986387,22.8938458 51.4604756,23.3773651 51.7961617,23.6378191 C52.1318478,23.8982731 52.6139233,23.835536 52.8726287,23.4984033 L57.4031288,17.6030169 L57.4031288,45.8695667 C56.3525323,46.2092342 55.3429501,46.639522 54.3813231,47.1509244 L46.7280591,33.8398858 C46.5166778,33.4717014 46.0465911,33.3455935 45.6799866,33.5585194 C45.312751,33.7714453 45.1871843,34.2422904 45.3991965,34.6111086 L53.0568775,47.9297517 C50.7228496,49.4278376 48.7396516,51.4278204 47.2580897,53.7782437 L33.9801909,46.0805915 C33.6129554,45.8676655 33.1434997,45.9937734 32.9314874,46.3625916 C32.7194752,46.730776 32.845673,47.2022548 33.2129085,47.4151807 L46.4901763,55.112833 C45.994219,56.0627614 45.5758734,57.0589506 45.2446043,58.0950633 C45.201066,58.0874588 45.1619447,58.0690813 45.1158825,58.0690813 L14.704112,58.0690813 C14.2800874,58.0690813 13.9361985,58.4131848 13.9361985,58.8390366 C13.9361985,59.2648885 14.2800874,59.6102594 14.704112,59.6102594 L44.8325685,59.6102594 C44.5751251,60.7331901 44.4154849,61.892876 44.3681607,63.0810786 L29.0332382,63.0823461 C28.6092137,63.0823461 28.2659557,63.4270833 28.2659557,63.8523014 C28.2659557,64.2781532 28.6092137,64.6235242 29.0332382,64.6235242 L44.3681607,64.6222567 C44.4154849,65.8110931 44.5751251,66.970779 44.8325685,68.0937097 L1.89377592,68.0937097 C1.7984966,66.6919474 1.74612453,65.2781446 1.74612453,63.8523014 C1.74612453,29.8437225 29.2957296,2.17475946 63.1583783,2.17475946 Z M107.668964,19.1498983 C95.7798719,7.20957031 79.9723387,0.633581358 63.1583783,0.633581358 C46.3444179,0.633581358 30.5368847,7.20957031 18.6477924,19.1498983 C6.75870011,31.0902263 0.210928605,46.9658817 0.210928605,63.8523014 C0.210928605,80.7387211 6.75870011,96.6143765 18.6477924,108.554704 C30.5368847,120.495033 46.3444179,127.071021 63.1583783,127.071021 C79.9723387,127.071021 95.7798719,120.495033 107.668964,108.554704 C119.558687,96.6143765 126.106459,80.7387211 126.106459,63.8523014 C126.106459,46.9658817 119.558687,31.0902263 107.668964,19.1498983 Z"
            id="compass-detail"></path>
          <path d="M30.2600699,106.577155 C30.7383594,106.950409 30.8241739,107.642418 30.4525215,108.122135 C30.2360923,108.401601 29.913026,108.54672 29.5861738,108.54672 C29.3508149,108.54672 29.1141941,108.471942 28.9135396,108.315416 L28.8706324,108.281196 C28.3923428,107.908576 28.3065283,107.216566 28.6781808,106.736216 C29.0498332,106.256499 29.7382421,106.169047 30.2171626,106.542935 L30.2600699,106.577155 Z M26.0884131,102.971102 L26.1452021,103.024334 C26.5774295,103.450186 26.5850014,104.146631 26.1609769,104.581355 C25.9464407,104.801885 25.6618647,104.91215 25.3779197,104.91215 C25.1009156,104.91215 24.8239115,104.806955 24.6106372,104.597197 C24.169576,104.180851 24.1361336,103.472999 24.5506933,103.030037 C24.965884,102.587075 25.6479829,102.554122 26.0884131,102.971102 Z M21.5574714,29.1713582 C21.3075998,29.1713582 21.0564662,29.0858076 20.8501328,28.9109042 C20.387618,28.5186389 20.330198,27.8234611 20.7214111,27.3595868 L20.7655803,27.3082564 C21.1612104,26.8481843 21.8540361,26.796854 22.3115031,27.1960901 C22.769601,27.5934251 22.8194491,28.2886028 22.4231881,28.7486749 L22.3954246,28.7816277 C22.1783644,29.0389132 21.8691799,29.1713582 21.5574714,29.1713582 Z M14.6699124,38.1608245 C14.1449296,37.8572783 13.9657288,37.1836466 14.2673415,36.6570352 C14.5601203,36.1240866 15.2340164,35.914963 15.7646781,36.2083698 C16.2953397,36.501143 16.4966251,37.1563971 16.2051083,37.6893456 L16.167249,37.755885 C15.9647015,38.1101278 15.595573,38.3078448 15.2163487,38.3078448 C15.030838,38.3078448 14.8421723,38.2603166 14.6699124,38.1608245 Z M19.0212116,94.685876 L19.057809,94.7391075 C19.3998049,95.2410043 19.2710832,95.9260427 18.77134,96.2688788 C18.5826743,96.398789 18.3668762,96.4615261 18.1536019,96.4615261 C17.8040341,96.4615261 17.4601451,96.2942271 17.2481329,95.9824427 C16.902351,95.4830808 17.0108811,94.7783974 17.5081003,94.4304916 C18.0059505,94.0832196 18.6760607,94.1871477 19.0212116,94.685876 Z M22.346523,99.0061176 L22.3900612,99.0574479 C22.7812743,99.5213223 22.7238543,100.2165 22.2613395,100.608765 C22.0556371,100.784303 21.8038725,100.869853 21.5540009,100.869853 C21.2422924,100.869853 20.9331079,100.737408 20.7160477,100.480123 C20.3197867,100.020051 20.3557531,99.30903 20.813851,98.9104277 C21.2713179,98.5130927 21.9502619,98.5460455 22.346523,99.0061176 Z M25.3831569,25.129568 C25.094795,25.129568 24.8070641,25.0155005 24.5918968,24.7905341 C24.1729202,24.3513744 24.186802,23.6549292 24.6240773,23.234147 L24.6726634,23.1885201 C25.1124627,22.7709064 25.8065504,22.7924525 26.2217411,23.2366819 C26.6369318,23.6796438 26.6154782,24.3767227 26.1737859,24.793069 L26.1422365,24.8228532 C25.9295933,25.0281747 25.6557441,25.129568 25.3831569,25.129568 Z M38.9996443,15.5923878 C38.6002284,15.5923878 38.2146942,15.3718574 38.0209806,14.9903651 C37.7471314,14.447911 37.9622986,13.7850523 38.5017941,13.5093893 L38.5705719,13.475169 C39.1163772,13.2096453 39.7719747,13.4403151 40.035097,13.9872052 C40.2988504,14.5340953 40.0704324,15.192518 39.525889,15.4580417 L39.4956016,15.4732507 C39.3359614,15.5537316 39.1668564,15.5923878 38.9996443,15.5923878 Z M44.1027037,13.3936108 C43.7032877,13.3936108 43.3177535,13.1737141 43.1246709,12.7915881 C42.8501908,12.249134 43.065358,11.5862753 43.6048535,11.3106123 L43.6736313,11.2770258 C44.2194366,11.0115021 44.8750341,11.2415381 45.1381564,11.7890619 C45.4019098,12.335952 45.1734918,12.9943747 44.6289484,13.2592647 L44.5986609,13.2744737 C44.4390208,13.3549546 44.2699157,13.3936108 44.1027037,13.3936108 Z M44.4693713,114.520179 C45.0372613,114.73057 45.3281472,115.363645 45.1180279,115.933982 C44.9546018,116.378845 44.5349942,116.653874 44.089516,116.653874 C43.9633183,116.653874 43.8352275,116.632328 43.7096607,116.586067 L43.6528717,116.564521 C43.0862437,116.350962 42.7991438,115.715986 43.011156,115.146916 C43.2237993,114.577213 43.8554192,114.288242 44.4226781,114.503069 L44.4693713,114.520179 Z M34.1482864,18.3048486 C33.7835748,18.3048486 33.4264351,18.1217069 33.2182088,17.7883765 C32.8964045,17.2731718 33.0516277,16.5938367 33.5646217,16.2706456 L33.6157318,16.2383265 C34.1299877,15.9176702 34.8057768,16.0760972 35.1256881,16.593203 C35.4443375,17.1096751 35.2865903,17.7890102 34.7723344,18.1090328 L34.7294271,18.1356485 C34.5489643,18.249716 34.3470479,18.3048486 34.1482864,18.3048486 Z M39.479953,112.364114 C40.0213415,112.636608 40.2409256,113.297566 39.9702314,113.841921 C39.7784108,114.227216 39.3909836,114.450281 38.9890437,114.450281 C38.8237246,114.450281 38.6565126,114.412892 38.4993963,114.333679 C37.9554839,114.06562 37.7106602,113.395157 37.9775685,112.849534 C38.2457388,112.303912 38.8811446,112.068806 39.424426,112.336231 L39.479953,112.364114 Z M49.6703602,116.160152 C50.2546559,116.317946 50.6016998,116.921236 50.4445835,117.509317 C50.3133378,118.000441 49.8703837,118.324899 49.3870462,118.324899 C49.2923979,118.324899 49.1971185,118.312225 49.1018392,118.286243 C48.5150196,118.134787 48.1408432,117.528962 48.2922805,116.939613 C48.4430868,116.351532 49.0191797,115.990318 49.6059993,116.143042 L49.6703602,116.160152 Z M29.5936825,21.4950619 C29.2643063,21.4950619 28.9374541,21.3461405 28.7216559,21.0616056 C28.3544204,20.57872 28.4465448,19.8879782 28.9279893,19.51916 C29.4062788,19.1452723 30.1117244,19.217515 30.4840078,19.6978657 C30.8556603,20.1775828 30.7881445,20.8556504 30.3098549,21.2289045 L30.2587448,21.2694618 C30.0599833,21.4215518 29.8258864,21.4950619 29.5936825,21.4950619 Z M34.729364,109.709194 C35.239834,110.036187 35.3900094,110.71679 35.0637881,111.22946 C34.8549308,111.558988 34.5003151,111.738327 34.1381275,111.738327 C33.936842,111.738327 33.7330326,111.682561 33.5500458,111.565959 C33.0357899,111.244669 32.859744,110.554561 33.1790244,110.038722 C33.4983047,109.52225 34.1564261,109.351783 34.6713131,109.672439 L34.729364,109.709194 Z M16.1466156,90.0506181 L16.1668073,90.0867394 C16.465265,90.6158857 16.2803853,91.2876163 15.7535095,91.5873602 C15.5831426,91.6843176 15.3970008,91.7305783 15.2133831,91.7305783 C14.8322658,91.7305783 14.4612443,91.5303265 14.2586969,91.1729151 L14.2252545,91.1120791 C13.9337376,90.5791306 14.1274512,89.9093012 14.6581129,89.6158943 C15.1887745,89.3243886 15.8550988,89.5176696 16.1466156,90.0506181 Z M9.24517485,53.9175328 C8.65078333,53.8015642 8.26209419,53.2236224 8.37819614,52.6273031 L8.3920779,52.5575952 C8.51575172,51.9619096 9.09563049,51.5816847 9.68939101,51.7052578 C10.2818896,51.8288309 10.6623759,52.412476 10.538071,53.007528 L10.5304992,53.0461841 C10.428279,53.5721619 9.96955007,53.9378114 9.45529414,53.9378114 C9.38651636,53.9378114 9.3158456,53.9308407 9.24517485,53.9175328 Z M112.548338,42.66237 L112.514896,42.5844239 C112.283323,42.0216911 112.5496,41.3791111 113.109918,41.1465402 C113.667712,40.9139693 114.310059,41.1820278 114.541001,41.7441269 C114.787086,42.3005226 114.543525,42.9627476 113.990148,43.2092601 C113.841865,43.2757994 113.688535,43.3068511 113.537729,43.3068511 C113.122538,43.3068511 112.72817,43.0698443 112.548338,42.66237 Z M114.421618,47.7425543 C114.236107,47.1665137 114.545292,46.5423112 115.118229,46.3521987 C115.688643,46.1620863 116.30575,46.4643651 116.499464,47.0385046 L116.526597,47.1246889 C116.702642,47.706433 116.374528,48.3217635 115.795281,48.4979344 C115.689274,48.5296198 115.582006,48.5454625 115.476631,48.5454625 C115.006544,48.5454625 114.571793,48.2393815 114.428559,47.7634667 L115.477893,47.4440778 L114.421618,47.7425543 Z M115.780011,53.0139918 C115.656337,52.4189399 116.036192,51.8359284 116.629322,51.7110879 C117.219296,51.5875148 117.802961,51.9683734 117.926004,52.564059 L117.937993,52.6179242 C118.061035,53.2129761 117.681811,53.7966213 117.088681,53.9208281 C117.013594,53.9360371 116.937875,53.944909 116.863418,53.944909 C116.355472,53.944909 115.899267,53.5874976 115.791368,53.0684907 L115.780011,53.0139918 Z M10.5234952,48.4919775 C9.94424742,48.3158067 9.61676419,47.7011098 9.7921791,47.1193658 L9.8148947,47.0477568 C10.0010364,46.4691813 10.6206675,46.1516935 11.1948674,46.3386374 C11.7715912,46.5249476 12.0877166,47.1459815 11.9015749,47.724557 L11.8908481,47.7581435 C11.7469826,48.2334246 11.3122313,48.5395056 10.8415136,48.5395056 C10.7361385,48.5395056 10.6295013,48.5242966 10.5234952,48.4919775 Z M13.7517605,85.140014 L13.775738,85.196414 C14.0110969,85.7572457 13.7498675,86.4029943 13.1914423,86.6387337 C13.0526248,86.6983022 12.9081283,86.7261854 12.7661558,86.7261854 C12.3383454,86.7261854 11.9319886,86.4733359 11.7553117,86.05192 C11.5167979,85.4942568 11.7654075,84.8237937 12.3213087,84.584252 C12.8778409,84.3447103 13.5132467,84.5804498 13.7517605,85.140014 Z M12.3326665,43.219336 C11.7773963,42.9766258 11.5231078,42.3283424 11.7647765,41.7706793 C12.0058143,41.2142836 12.6607807,40.9335509 13.2154199,41.1737263 C13.7700591,41.4145353 14.0375984,42.0355693 13.7990846,42.5932324 C13.7984536,42.5957672 13.776369,42.648365 13.775107,42.6496324 C13.5952752,43.0640775 13.1927043,43.3118574 12.7693108,43.3118574 C12.6229214,43.3118574 12.474639,43.2820731 12.3326665,43.219336 Z M11.8859264,80.0709829 C12.0638652,80.652727 11.738906,81.2686912 11.1602892,81.4473969 C11.0530211,81.4803497 10.944491,81.4961924 10.8378539,81.4961924 C10.3690291,81.4961924 9.93553977,81.1920125 9.78978134,80.7186326 C9.60616358,80.1387897 9.91913406,79.4987445 10.4958579,79.3143354 C11.0713197,79.1292927 11.682748,79.4277692 11.8663657,80.0076121 L11.8859264,80.0709829 Z M10.527849,74.7859207 C10.64332,75.3828738 10.2546308,75.9608156 9.66023933,76.0767841 C9.59019956,76.0907257 9.51952881,76.0964291 9.45012003,76.0964291 C8.93649509,76.0964291 8.4771352,75.7314132 8.37554599,75.2054355 C8.25124118,74.6103836 8.62794154,74.0070935 9.22044009,73.8828867 C9.81420061,73.7593136 10.3902935,74.1205272 10.5139673,74.7162128 L10.527849,74.7859207 Z M17.5312576,33.3807643 C17.0340384,33.0334922 16.9122575,32.3471864 17.2580394,31.8478244 C17.6038213,31.3497298 18.303588,31.2033432 18.7995452,31.551249 C19.2967644,31.898521 19.434951,32.5626471 19.0885381,33.0620091 L19.0576197,33.1063687 C18.8443454,33.4143508 18.5036114,33.5784812 18.1565676,33.5784812 C17.9401384,33.5784812 17.7224472,33.5144767 17.5312576,33.3807643 Z M96.0024847,106.619867 C96.4788813,106.245979 97.1685522,106.332797 97.5408356,106.813148 C97.912488,107.292865 97.8266736,107.98424 97.348384,108.357495 L97.3048458,108.391715 C97.1054533,108.548241 96.8682015,108.623652 96.6328426,108.623652 C96.3059904,108.623652 95.9829241,108.477899 95.7664949,108.198434 C95.3954734,107.718717 95.4812879,107.027341 95.9589465,106.654087 L96.0024847,106.619867 Z M103.905557,99.0840637 C104.311283,98.6322298 105.004109,98.5961084 105.454004,99.0035827 C105.903899,99.4110571 105.939234,100.106869 105.534139,100.558702 C105.315186,100.817889 105.000954,100.952869 104.684828,100.952869 C104.436219,100.952869 104.185716,100.868586 103.982538,100.695583 C103.520023,100.303318 103.455662,99.6163785 103.847506,99.1512367 L103.905557,99.0840637 Z M108.739942,94.5064098 C109.240947,94.8479785 109.371561,95.5323833 109.031458,96.0361812 L108.985396,96.1033543 C108.771491,96.4037319 108.433912,96.5634263 108.091916,96.5634263 C107.87107,96.5634263 107.648331,96.4975207 107.455879,96.3593723 C106.963077,96.0051295 106.848868,95.3175562 107.200329,94.8226302 L107.216734,94.7998167 C107.557468,94.2960188 108.240198,94.1661086 108.739942,94.5064098 Z M100.139311,103.056526 C100.581634,102.639546 101.275091,102.661092 101.68902,103.104688 C102.10421,103.54765 102.082757,104.244729 101.641695,104.660441 L101.601312,104.698464 C101.3893,104.898716 101.119868,104.997574 100.849804,104.997574 C100.558918,104.997574 100.267402,104.881606 100.052234,104.650936 C99.6370437,104.20734 99.6584973,103.510895 100.099559,103.094549 L100.139311,103.056526 Z M96.0092363,21.2295382 C95.5309467,20.8562841 95.4445013,20.1649086 95.8161537,19.6845579 C96.1884371,19.2048408 96.877477,19.1186565 97.3545046,19.4919106 L97.3980428,19.5261308 C97.8763324,19.8987512 97.9627778,20.5907604 97.5904944,21.0704775 C97.3746962,21.349309 97.0509989,21.4956956 96.7247777,21.4956956 C96.4894188,21.4956956 96.252167,21.4202843 96.0521436,21.2637584 L96.0092363,21.2295382 Z M107.268476,33.1196132 L107.216734,33.0454693 C106.881679,32.5391365 107.017342,31.8553655 107.520871,31.5182328 C108.025031,31.179199 108.705237,31.3173473 109.041554,31.8236801 C109.393015,32.3179724 109.285116,33.0137839 108.792945,33.3680267 C108.596707,33.5074425 108.372075,33.5752493 108.150598,33.5752493 C107.813019,33.5752493 107.481119,33.4187234 107.268476,33.1196132 Z M100.183985,24.8319153 L100.120255,24.7698119 C99.6924445,24.3407915 99.6924445,23.6430789 100.120255,23.2127911 C100.548696,22.783137 101.242784,22.783137 101.670595,23.2127911 C102.111656,23.629771 102.141312,24.333187 101.726122,24.776149 C101.509061,25.0087198 101.216914,25.1272232 100.924135,25.1272232 C100.659119,25.1272232 100.394104,25.0296322 100.183985,24.8319153 Z M103.92373,28.782705 L103.903538,28.7592578 C103.50286,28.3042554 103.544505,27.6078102 103.998186,27.2054056 C104.452498,26.8017335 105.144693,26.8448257 105.545371,27.2998281 L105.597112,27.3606641 C105.988325,27.8245384 105.930905,28.5197162 105.46839,28.9119815 C105.262688,29.0868849 105.011555,29.1724355 104.761052,29.1724355 C104.449343,29.1724355 104.14079,29.0399905 103.92373,28.782705 Z M49.3961955,11.7202412 C48.9071791,11.7202412 48.460439,11.3881782 48.3348722,10.8888162 C48.1859589,10.3001013 48.5405746,9.70061348 49.1280253,9.55169208 C49.7129519,9.40023584 50.3363689,9.74814159 50.4871753,10.3362227 C50.6379816,10.9255712 50.3104984,11.5193557 49.7243097,11.6714457 L49.6668897,11.6853873 C49.5760273,11.7088344 49.4857959,11.7202412 49.3961955,11.7202412 Z M117.075872,73.9906804 C117.668371,74.1148872 118.048226,74.6978987 117.925183,75.294218 L117.913826,75.3480832 C117.805296,75.8670901 117.349722,76.2232341 116.841145,76.2232341 C116.767319,76.2232341 116.6916,76.2162633 116.615882,76.1997869 C116.023383,76.0762138 115.643528,75.4925686 115.767201,74.8975167 L115.778559,74.8430178 C115.902233,74.2473322 116.485267,73.8671074 117.075872,73.9906804 Z M110.147678,37.7523996 L110.107925,37.6795232 C109.822718,37.1427724 110.024635,36.4754778 110.559082,36.1896754 C111.09353,35.9038731 111.75733,36.106026 112.041906,36.6427767 C112.341626,37.1725567 112.162425,37.855694 111.635549,38.1560717 C111.462028,38.2549301 111.273362,38.3018245 111.088482,38.3018245 C110.711782,38.3018245 110.348332,38.1072761 110.147678,37.7523996 Z M113.94743,84.6758862 C114.505855,84.9109919 114.768346,85.5561067 114.53488,86.1163047 L114.5027,86.1891811 C114.321606,86.5991903 113.920928,86.8431679 113.500689,86.8431679 C113.352407,86.8431679 113.20097,86.8121162 113.056473,86.747478 C112.503096,86.5009655 112.253855,85.8501473 112.499941,85.2943853 L112.512561,85.2652347 C112.746658,84.7044031 113.387742,84.4407805 113.94743,84.6758862 Z M115.804051,79.4205449 C116.378251,79.6131922 116.688698,80.2361273 116.497508,80.8128016 C116.351119,81.2887164 115.910688,81.6030356 115.438078,81.6030356 C115.333334,81.6030356 115.227327,81.5884603 115.122583,81.5555075 C114.543966,81.3768018 114.21459,80.7754128 114.39316,80.1936688 L114.417138,80.1169901 C114.608327,79.539682 115.226696,79.2278977 115.804051,79.4205449 Z M111.592327,89.7238782 C112.124881,90.0141165 112.322381,90.6826785 112.033388,91.2168945 L111.996791,91.2828001 C111.794874,91.6402115 111.423853,91.8410969 111.041473,91.8410969 C110.858487,91.8410969 110.672976,91.79547 110.501978,91.6978789 C109.975102,91.398135 109.790854,90.7264044 110.089311,90.1972581 L110.106348,90.1668401 C110.39471,89.6326242 111.061034,89.4342736 111.592327,89.7238782 Z M91.5365348,18.1030759 C91.0254338,17.7760825 90.8758895,17.09548 91.2014797,16.5834439 C91.527701,16.0701403 92.205383,15.9199515 92.715222,16.2469449 C93.2301089,16.5676012 93.4055238,17.2570756 93.0862435,17.7741814 C92.8773862,18.1132152 92.5221394,18.3020603 92.1567969,18.3020603 C91.9649762,18.3020603 91.7712627,18.2500962 91.5945858,18.139831 L91.5365348,18.1030759 Z M76.5952232,116.173143 C77.1820428,116.028024 77.7776963,116.384168 77.9247167,116.974784 C78.0711061,117.564133 77.7145974,118.162353 77.1277778,118.309373 C77.0343914,118.333454 76.9410051,118.345495 76.8482497,118.345495 C76.3567094,118.345495 75.8960875,118.019769 75.7686277,117.524209 C75.6184524,116.93486 75.9484596,116.341076 76.5340172,116.188352 L76.5952232,116.173143 Z M71.2577514,10.5796934 C70.6602049,10.482736 70.2544791,9.91746839 70.3510204,9.31671311 C70.4475617,8.71659154 71.0135587,8.30975094 71.6079502,8.40544087 C72.2073897,8.49479371 72.640879,9.05689279 72.5531716,9.65828178 C72.473036,10.2058056 72.019986,10.6018731 71.4880623,10.6018731 C71.4350593,10.6018731 71.3814252,10.5980709 71.3277912,10.5904664 L71.2577514,10.5796934 Z M54.8338683,10.6013028 C54.3069926,10.6013028 53.8413228,10.2185431 53.7536154,9.67862381 C53.6551811,9.07850224 54.059645,8.5119672 54.6571914,8.41374244 L54.7303861,8.4023357 C55.3279326,8.31234915 55.8857268,8.72996278 55.9746962,9.33135177 C56.0624036,9.93274076 55.6478439,10.4929387 55.0490355,10.5810241 L55.0130691,10.5867275 C54.9531252,10.5968668 54.8931813,10.6013028 54.8338683,10.6013028 Z M86.7829171,15.4537958 C86.2415286,15.1813014 86.0213135,14.5197101 86.2926387,13.9759885 C86.5633329,13.4329007 87.2201923,13.2117366 87.7634738,13.4835974 C88.3080172,13.749121 88.5547338,14.415782 88.2909805,14.9639395 C88.1004218,15.3587396 87.7161496,15.5925779 87.3116857,15.5925779 C87.1558315,15.5925779 86.9961913,15.557724 86.845385,15.4842138 L86.7829171,15.4537958 Z M86.7730105,112.395673 C87.3162919,112.122544 87.9731514,112.344342 88.2444766,112.888064 C88.5151708,113.432419 88.2955867,114.093377 87.7535672,114.365237 L87.6910993,114.395655 C87.537138,114.470433 87.3749739,114.505921 87.2140717,114.505921 C86.8070839,114.505921 86.4165018,114.277786 86.2265742,113.884887 C85.9634518,113.336729 86.1912388,112.678306 86.7364132,112.413416 L86.7730105,112.395673 Z M91.5288367,109.746329 C92.0393067,109.418702 92.7169888,109.569525 93.042579,110.082194 C93.3681693,110.594864 93.2186249,111.275467 92.7081549,111.60246 L92.650104,111.639215 C92.4702721,111.751382 92.2708796,111.805247 92.0727491,111.805247 C91.7061446,111.805247 91.3477429,111.620204 91.1401476,111.284339 C90.8202362,110.767233 90.9786144,110.089165 91.4935014,109.767875 L91.5288367,109.746329 Z M76.599577,11.6732201 C76.0133883,11.5211301 75.6606655,10.9210085 75.8114719,10.33166 C75.9629092,9.74294518 76.5579317,9.38933606 77.1466443,9.54015859 C77.732833,9.69161483 78.1126883,10.2993409 77.961251,10.8880557 C77.8331602,11.3855166 77.4047188,11.7207482 76.9220123,11.7207482 C76.8336738,11.7207482 76.7428115,11.7099751 76.65258,11.6865279 L76.599577,11.6732201 Z M81.9102948,13.3403793 C81.3241061,13.1882894 80.9713834,12.5881678 81.1221897,11.9988193 C81.273627,11.4107382 81.8686495,11.0564953 82.4573622,11.2079516 C83.0435508,11.3594078 83.4234061,11.9665002 83.2719688,12.555215 C83.144509,13.0533096 82.7160676,13.3879074 82.2327301,13.3879074 C82.1443917,13.3879074 82.0541603,13.3777681 81.9632979,13.3536872 L81.9102948,13.3403793 Z M81.8003134,114.538113 C82.3726203,114.338495 82.9966683,114.641407 83.1960608,115.214913 C83.3954533,115.789686 83.0932096,116.417058 82.5221647,116.617309 C82.393443,116.665471 82.2615663,116.688918 82.1309516,116.688918 C81.6854735,116.688918 81.2614489,116.419592 81.0961299,115.977898 C80.8834866,115.408828 81.1573358,114.779556 81.7239638,114.565996 L81.8003134,114.538113 Z"
            id="circle-center-dotted"></path>
          <path d="M57.4132246,63.8523014 C57.4132246,60.670453 59.9901832,58.0817554 63.1583783,58.0817554 C66.3265734,58.0817554 68.9041629,60.670453 68.9041629,63.8523014 C68.9041629,67.0341498 66.3265734,69.6222137 63.1583783,69.6222137 C59.9901832,69.6222137 57.4132246,67.0341498 57.4132246,63.8523014 Z M55.8780287,63.8523014 C55.8780287,67.8839523 59.1440271,71.1640255 63.1583783,71.1640255 C67.1727295,71.1640255 70.4393588,67.8839523 70.4393588,63.8523014 C70.4393588,59.8206505 67.1727295,56.5405773 63.1583783,56.5405773 C59.1440271,56.5405773 55.8780287,59.8206505 55.8780287,63.8523014 Z"
            id="circle-center-inner-01"></path>
          <path d="M63.1583783,75.3855987 C56.826405,75.3855987 51.6756428,70.2120058 51.6756428,63.8521113 C51.6756428,57.4934842 56.826405,52.3198913 63.1583783,52.3198913 C69.4909826,52.3198913 74.6430067,57.4934842 74.6430067,63.8521113 C74.6430067,70.2120058 69.4909826,75.3855987 63.1583783,75.3855987 M63.1583783,50.7780795 C55.9802489,50.7780795 50.1404469,56.6430479 50.1404469,63.8521113 C50.1404469,71.0618083 55.9802489,76.9274105 63.1583783,76.9274105 C70.3371386,76.9274105 76.1775716,71.0618083 76.1775716,63.8521113 C76.1775716,56.6430479 70.3371386,50.7780795 63.1583783,50.7780795"
            id="circle-center-inner-02"></path>
        </g>
      </g>
    </g>
  </g>
</svg>
